<?xml version="1.0" standalone="no"?>
<!DOCTYPE svg PUBLIC "-//W3C//DTD SVG 20010904//EN"
 "http://www.w3.org/TR/2001/REC-SVG-20010904/DTD/svg10.dtd">
<svg version="1.0" xmlns="http://www.w3.org/2000/svg"
 width="7017.000000pt" height="9934.000000pt" viewBox="0 0 7017.000000 9934.000000"
 preserveAspectRatio="xMidYMid meet">

<g transform="translate(0.000000,9934.000000) scale(0.100000,-0.100000)"
fill="#000000" stroke="none">
<path d="M40185 75614 c-33 -2 -141 -8 -240 -14 -1599 -94 -3233 -523 -4654
-1220 l-195 -96 234 -126 c761 -408 1528 -926 2125 -1433 33 -28 67 -56 76
-63 13 -10 43 -3 158 33 1384 437 2817 568 4261 389 1797 -223 3518 -947 4950
-2082 323 -256 544 -455 866 -776 341 -342 581 -614 849 -961 1146 -1488 1838
-3221 2030 -5087 58 -567 64 -1274 15 -1858 -241 -2847 -1695 -5450 -4010
-7176 -1398 -1043 -3072 -1708 -4790 -1903 -430 -49 -689 -63 -1151 -65 -387
-1 -396 -1 -391 -20 5 -20 5 -20 13 0 7 18 8 18 8 -2 1 -11 -6 -29 -14 -40 -8
-10 -15 -14 -15 -9 0 6 -3 6 -8 -1 -4 -7 -18 -8 -38 -2 -28 7 -30 11 -26 40 5
31 4 32 -13 15 -13 -14 -20 -15 -31 -6 -21 17 -17 28 9 22 12 -3 19 -2 14 2
-12 13 -45 16 -52 5 -3 -6 -12 -10 -18 -10 -7 0 -6 4 3 10 12 8 11 10 -7 10
-14 0 -23 -6 -23 -15 0 -8 9 -15 20 -15 11 0 33 -13 48 -30 16 -17 33 -30 37
-30 4 0 24 -17 44 -38 21 -21 55 -51 77 -67 21 -17 42 -34 46 -40 4 -5 6 7 5
28 -2 21 -7 41 -13 45 -6 4 -14 14 -18 22 -3 8 -4 5 -2 -7 3 -18 0 -23 -18
-23 -14 0 -22 7 -23 18 -1 9 -2 22 -3 27 -5 22 1 35 16 35 9 0 12 5 8 13 -6 8
-3 8 9 -2 9 -7 24 -11 32 -7 12 4 14 -2 10 -29 -3 -27 1 -38 17 -49 19 -14 23
-13 34 2 7 9 10 20 8 23 -2 4 7 2 21 -4 27 -13 31 -22 15 -32 -6 -4 -8 -10 -5
-15 3 -5 1 -11 -4 -14 -5 -3 -7 -15 -4 -26 3 -12 0 -20 -7 -20 -7 0 -10 -7 -6
-15 7 -20 -3 -19 -26 2 -10 9 -20 14 -23 11 -3 -3 10 -17 30 -32 l35 -27 0 29
c0 21 6 31 20 35 11 3 18 1 14 -4 -3 -5 -1 -9 5 -9 5 0 13 5 16 10 4 6 10 8
14 6 4 -3 8 1 8 8 0 8 -6 12 -12 9 -7 -2 -15 3 -18 11 -9 22 5 20 38 -6 l27
-21 -28 -12 c-19 -7 -24 -14 -16 -19 7 -4 12 -18 12 -32 0 -17 -4 -23 -12 -18
-7 4 -8 3 -4 -5 6 -9 11 -9 22 0 12 10 13 9 8 -5 -3 -9 -1 -16 5 -16 6 0 11
-4 11 -10 0 -5 -7 -10 -15 -10 -8 0 -15 4 -15 8 0 5 -17 16 -37 25 l-38 17 40
-35 c22 -19 45 -35 52 -35 7 0 10 -7 6 -17 -4 -11 -3 -14 5 -9 7 4 12 2 12 -3
0 -6 4 -11 10 -11 5 0 25 -15 44 -32 53 -51 110 -98 118 -98 5 0 8 -6 8 -12 0
-7 25 -30 55 -51 39 -27 53 -33 48 -20 -4 10 -10 21 -15 24 -5 3 4 19 19 35
24 26 28 27 31 10 3 -14 6 -15 12 -6 13 21 30 1 30 -37 0 -27 -3 -34 -15 -29
-8 3 -14 0 -12 -6 1 -6 -4 -13 -12 -16 -8 -3 -11 0 -7 7 4 6 3 11 -2 11 -6 0
-12 -7 -15 -14 -10 -26 32 -31 52 -7 11 13 25 19 35 15 17 -7 22 11 6 21 -13
8 -3 25 13 24 8 0 8 -2 -1 -6 -10 -4 -10 -8 -1 -19 14 -17 33 -19 23 -2 -4 7
-3 8 5 4 6 -4 9 -12 5 -17 -3 -5 1 -21 10 -34 18 -27 22 -49 5 -25 -9 13 -10
13 -6 0 2 -8 17 -16 35 -17 22 -2 30 1 26 10 -3 8 3 13 15 13 15 0 17 -4 10
-17 -9 -18 -9 -69 1 -66 3 1 5 -3 5 -8 0 -6 -4 -8 -10 -6 -5 2 -21 5 -35 7
l-25 4 25 -8 c21 -7 22 -9 8 -15 -10 -3 -26 -3 -35 0 -10 4 -2 -7 18 -25 20
-18 41 -32 45 -32 5 0 3 4 -5 9 -8 5 -11 16 -6 30 3 12 10 19 15 16 5 -3 11
-1 14 4 3 5 14 8 24 6 9 -1 11 0 4 2 -7 3 -10 9 -7 14 4 5 13 5 24 -1 10 -5
20 -8 23 -7 2 1 -5 -6 -15 -15 -11 -10 -14 -18 -8 -18 6 0 9 -6 7 -12 -1 -7
-1 -10 1 -5 3 4 14 7 26 6 l22 0 -22 -16 c-26 -18 -30 -33 -8 -33 8 0 15 -9
15 -20 0 -29 -15 -25 -38 11 -16 26 -20 28 -26 13 -4 -11 1 -26 15 -41 23 -24
49 -31 49 -13 0 18 29 10 35 -10 4 -11 11 -18 16 -15 5 4 9 1 9 -4 0 -14 -6
-14 -30 -1 -16 8 -18 8 -14 -5 4 -8 10 -15 14 -15 5 0 12 -9 15 -20 3 -11 14
-20 23 -20 9 0 28 -14 41 -30 13 -17 29 -30 36 -30 7 0 16 -7 19 -16 3 -8 11
-12 18 -8 8 5 9 0 6 -14 -5 -17 -2 -22 12 -22 10 0 26 -7 35 -16 9 -9 19 -14
22 -10 4 3 -2 13 -13 21 -15 11 -16 14 -3 15 8 0 20 -5 26 -11 7 -7 13 -7 17
-1 8 13 -3 42 -16 42 -6 0 -8 -6 -5 -13 4 -10 -3 -12 -24 -9 -26 4 -29 8 -29
42 l0 38 -46 -2 c-32 -1 -48 2 -52 12 -2 8 0 17 5 21 16 10 11 40 -9 47 -10 3
-18 10 -18 15 0 6 4 7 10 4 5 -3 19 -1 32 6 17 9 24 9 33 -5 7 -9 20 -16 29
-16 9 0 17 -8 17 -17 1 -10 2 -22 4 -28 1 -5 3 -16 3 -23 1 -9 13 -12 35 -10
28 3 32 0 33 -22 2 -54 4 -60 27 -60 16 0 19 3 8 9 -8 5 -11 16 -8 26 6 14 11
13 35 -11 22 -22 27 -34 24 -66 -4 -35 -7 -38 -36 -39 -17 -1 -35 -1 -39 0 -5
1 -6 -3 -2 -9 3 -5 13 -10 22 -10 9 0 13 -3 10 -7 -7 -7 21 -43 33 -43 4 0 6
13 5 30 -1 22 4 31 18 36 13 4 16 9 8 13 -9 6 -8 11 4 21 9 7 15 9 14 4 -3
-19 1 -34 11 -34 6 0 10 8 11 18 0 10 3 12 6 4 2 -6 10 -9 16 -5 7 4 8 0 4
-11 -4 -10 -7 -32 -7 -51 0 -27 -4 -33 -25 -37 -17 -4 -29 0 -35 11 -5 9 -9
12 -10 6 0 -21 17 -35 36 -29 14 4 16 3 5 -4 -11 -8 -9 -15 13 -36 l26 -27 -1
28 c0 15 -3 22 -6 15 -2 -6 -9 -10 -14 -7 -13 9 13 45 33 45 10 0 18 6 18 13
0 8 4 7 10 -3 5 -8 10 -10 10 -5 0 6 7 1 16 -10 11 -15 17 -17 23 -7 6 10 10
10 21 -3 8 -10 9 -15 1 -16 -26 -3 -30 -4 -37 -11 -4 -5 -2 -8 4 -8 7 0 12 -4
12 -10 0 -5 -6 -7 -14 -4 -9 3 -17 -3 -21 -16 -5 -17 -9 -19 -21 -9 -29 24
-23 2 6 -24 16 -15 30 -25 30 -23 0 2 26 -20 57 -50 37 -36 59 -51 64 -43 4 7
17 9 35 5 20 -5 24 -10 14 -16 -7 -4 -19 -6 -27 -3 -7 3 -13 0 -13 -6 0 -6 13
-11 29 -11 17 0 33 -5 37 -11 4 -8 -1 -9 -17 -4 -22 7 -22 5 7 -25 20 -21 37
-30 44 -25 10 6 8 11 -6 22 -18 13 -18 14 4 19 23 7 29 19 12 29 -6 4 -4 12 5
22 9 8 14 17 11 20 -2 3 -15 -6 -27 -18 -16 -16 -24 -19 -27 -10 -2 7 0 17 6
23 7 7 4 16 -7 27 -22 22 -51 33 -51 20 0 -6 -5 -7 -11 -4 -6 4 -8 10 -4 13
10 10 79 10 95 0 11 -7 10 -8 -7 -5 -15 4 -23 0 -23 -9 0 -17 14 -18 43 -2 20
10 21 10 8 -5 -12 -15 -11 -17 3 -17 13 0 16 -5 11 -21 -6 -19 -4 -21 24 -17
33 5 43 -7 34 -43 -4 -14 -2 -20 5 -15 6 3 13 2 17 -4 3 -5 -2 -10 -12 -10
-14 0 -15 -2 -4 -9 8 -5 10 -14 6 -21 -5 -9 -4 -11 3 -6 7 4 12 13 12 21 0 8
5 17 12 21 7 5 8 2 3 -7 -6 -11 -5 -12 6 -1 18 17 30 15 23 -3 -5 -11 -1 -14
12 -9 14 4 12 0 -6 -15 -25 -20 -25 -20 -2 -16 12 2 28 7 35 10 6 4 1 -3 -12
-14 -13 -12 -18 -21 -12 -21 7 0 9 -5 5 -11 -6 -10 10 -8 54 8 6 3 12 -1 12
-8 0 -11 3 -11 10 1 8 13 10 12 10 -3 0 -10 7 -20 15 -23 8 -4 15 -11 15 -17
0 -5 -8 -3 -18 6 -24 22 -34 21 -30 0 2 -11 -2 -17 -11 -15 -11 2 -12 0 -3
-11 9 -11 7 -18 -9 -33 -16 -14 -23 -15 -26 -6 -3 6 -9 12 -14 12 -5 0 -2 -11
7 -25 9 -14 22 -25 29 -25 7 0 16 -6 18 -12 3 -7 6 4 6 25 1 36 2 37 40 37 22
0 41 5 43 12 3 9 6 9 12 0 4 -7 2 -12 -3 -12 -6 0 -11 -4 -11 -10 0 -5 9 -10
20 -10 13 0 20 -7 20 -20 0 -13 -7 -20 -19 -20 -10 0 -22 -7 -25 -16 -9 -24
-7 -36 4 -29 6 4 8 11 5 16 -4 5 3 9 14 9 11 0 23 5 26 10 12 19 26 10 19 -12
-7 -23 -6 -23 15 -4 11 11 24 16 28 13 3 -4 1 -7 -6 -7 -7 0 -9 -5 -5 -12 5
-7 3 -8 -6 -3 -9 6 -11 -4 -5 -44 6 -47 5 -51 -12 -44 -10 3 -24 11 -31 16 -7
5 -15 7 -18 4 -3 -3 4 -11 17 -17 27 -15 69 -59 69 -73 0 -5 9 -7 20 -4 10 3
18 1 17 -4 -4 -15 76 -79 98 -79 12 0 30 -10 41 -22 l19 -21 -28 18 c-50 32
-39 9 22 -44 33 -29 63 -53 68 -54 4 -1 21 -17 37 -34 27 -32 59 -43 70 -24 3
4 18 6 33 4 21 -3 24 -2 14 6 -12 8 -9 11 13 17 20 5 26 11 23 25 -3 11 0 16
8 12 26 -9 24 -32 -3 -42 -25 -10 -25 -11 -2 -5 14 3 36 7 50 8 66 6 131 19
135 27 3 4 12 6 19 3 24 -9 559 112 891 202 1247 339 2445 879 3548 1601 1437
939 2699 2208 3638 3659 475 733 885 1543 1191 2349 412 1089 667 2218 762
3385 40 488 52 1201 27 1650 -61 1090 -233 2062 -545 3066 -196 633 -424 1200
-731 1819 -454 917 -991 1734 -1657 2523 -437 516 -1004 1080 -1528 1518
-1581 1322 -3469 2234 -5470 2643 -551 112 -1070 183 -1665 227 -195 14 -1198
28 -1360 18z m188 -22478 c4 -10 1 -13 -8 -9 -8 3 -12 9 -9 14 7 12 11 11 17
-5z m63 -79 c1 -7 -7 -14 -17 -14 -22 -2 -24 8 -7 25 13 13 21 9 24 -11z m84
-92 c0 -11 -29 -11 -33 -1 -4 10 1 12 14 9 10 -3 19 -7 19 -8z m133 -87 c-10
-17 -31 -7 -35 16 -5 24 -4 24 17 8 13 -9 21 -20 18 -24z m20 -23 c-3 -9 -8
-14 -10 -11 -3 3 -2 9 2 15 9 16 15 13 8 -4z m-39 -11 c5 -13 14 -15 42 -10
30 6 38 3 55 -18 11 -14 27 -26 35 -26 12 0 12 -2 2 -14 -9 -10 -18 -11 -30
-5 -14 7 -18 6 -18 -6 0 -9 5 -13 10 -10 13 8 13 -5 0 -25 -8 -12 -10 -12 -10
-1 0 8 -3 11 -7 7 -5 -4 1 -14 11 -22 14 -10 16 -14 5 -14 -8 0 -1 -7 15 -15
35 -19 37 -19 30 0 -4 9 0 15 10 15 9 0 16 5 16 11 0 5 4 8 9 4 5 -3 11 1 13
9 3 13 6 12 23 -1 16 -13 17 -15 3 -10 -10 4 -18 2 -18 -3 0 -6 5 -11 10 -11
6 -1 15 -3 20 -4 6 -1 14 -3 19 -4 5 0 12 -9 15 -18 4 -10 4 -14 0 -10 -8 7
-33 -22 -34 -38 0 -5 5 -3 10 5 9 13 10 13 10 -1 0 -12 -10 -15 -42 -13 -56 3
-56 2 -34 19 11 8 14 15 8 15 -7 0 -13 8 -13 18 -1 16 -2 16 -6 -1 -6 -23 -37
-14 -77 22 -79 71 -81 75 -78 111 2 19 0 32 -4 28 -8 -9 -34 9 -34 23 0 16 28
10 34 -7z m-14 -43 c6 -13 6 -22 1 -26 -9 -5 -31 24 -31 39 0 14 20 4 30 -13z
m177 -53 c-3 -7 -5 -2 -5 12 0 14 2 19 5 13 2 -7 2 -19 0 -25z m-29 -17 c-7
-11 -16 -17 -21 -14 -4 3 0 11 10 19 24 18 25 17 11 -5z m82 -141 c0 -5 -2
-10 -4 -10 -3 0 -8 5 -11 10 -3 6 -1 10 4 10 6 0 11 -4 11 -10z m214 -65 c-4
-8 -8 -15 -10 -15 -2 0 -4 7 -4 15 0 8 4 15 10 15 5 0 7 -7 4 -15z m81 -84
c-3 -5 -1 -12 5 -16 5 -3 10 -11 10 -17 0 -7 -6 -6 -15 2 -17 14 -20 40 -4 40
5 0 8 -4 4 -9z m55 -23 c0 -15 -15 -8 -28 12 -12 19 -11 20 8 8 11 -7 20 -16
20 -20z m100 -88 c0 -5 -5 -10 -11 -10 -5 0 -7 5 -4 10 3 6 8 10 11 10 2 0 4
-4 4 -10z m-48 -22 c-7 -7 -12 -8 -12 -2 0 6 3 14 7 17 3 4 9 5 12 2 2 -3 -1
-11 -7 -17z m55 -4 c-3 -3 -12 -4 -19 -1 -8 3 -5 6 6 6 11 1 17 -2 13 -5z m30
-8 c-3 -7 0 -19 6 -25 8 -8 7 -11 -6 -11 -17 0 -24 30 -10 43 11 11 15 8 10
-7z m3 -112 c0 -11 -8 -14 -27 -12 -39 4 -42 28 -4 28 21 0 31 -5 31 -16z
m151 -8 c12 7 12 5 0 -9 -15 -19 -31 -14 -31 11 0 14 2 14 9 3 5 -8 14 -10 22
-5z m-61 -76 c0 -5 -7 -7 -15 -4 -8 4 -15 8 -15 10 0 2 7 4 15 4 8 0 15 -4 15
-10z m410 -230 c0 -5 -2 -10 -4 -10 -3 0 -8 5 -11 10 -3 6 -1 10 4 10 6 0 11
-4 11 -10z m31 -73 c-10 -10 -11 -8 -5 7 5 13 4 17 -4 12 -7 -4 -12 -2 -12 3
0 6 -8 11 -17 11 -15 0 -15 2 -4 9 21 13 59 -25 42 -42z m-31 3 c9 -16 8 -18
-5 -14 -8 4 -15 12 -15 20 0 20 7 17 20 -6z m-34 -20 c8 0 14 -6 14 -14 0 -8
2 -20 3 -28 2 -7 2 -10 0 -5 -3 4 -11 7 -19 7 -8 0 -14 9 -14 20 0 13 -7 20
-20 20 -11 0 -20 4 -20 9 0 15 35 18 38 4 2 -7 10 -13 18 -13z m67 -37 c-7 -3
-13 -13 -13 -24 0 -10 -4 -19 -10 -19 -13 0 -13 26 1 52 8 16 13 17 22 8 9
-10 9 -14 0 -17z m542 -372 c-6 -5 -25 10 -25 20 0 5 6 4 14 -3 8 -7 12 -15
11 -17z m38 -84 c-5 -25 -6 -26 -19 -10 -18 24 -17 31 4 35 22 5 21 7 15 -25z
m63 -59 c-9 -5 -13 -14 -10 -20 5 -7 12 -5 21 7 10 15 16 16 25 7 9 -9 9 -15
0 -24 -18 -18 -15 -23 12 -23 20 0 22 3 15 23 -11 28 6 30 21 2 6 -11 16 -20
24 -20 7 0 22 -11 34 -25 12 -14 18 -25 13 -25 -5 0 -16 10 -25 23 -16 22 -16
22 -6 -5 6 -19 6 -28 -1 -28 -6 0 -7 -5 -4 -11 4 -6 22 -9 40 -8 41 4 71 -17
54 -38 -7 -7 -9 -16 -6 -20 4 -3 2 -11 -3 -18 -7 -8 -1 -10 21 -7 24 4 30 8
26 24 -4 16 -3 17 9 7 7 -6 11 -15 8 -20 -3 -5 0 -9 6 -9 6 0 8 -5 4 -12 -5
-8 -2 -9 9 -5 11 4 17 1 17 -7 0 -8 -6 -16 -12 -19 -10 -3 -10 -9 -1 -25 13
-22 2 -39 -17 -27 -6 3 -13 -1 -16 -9 -3 -9 -10 -16 -16 -16 -5 0 -6 5 -3 10
3 6 0 10 -9 10 -15 0 -32 53 -21 70 3 5 2 10 -3 10 -6 0 -13 -7 -16 -16 -6
-16 -26 -11 -26 7 0 6 5 7 10 4 6 -3 10 1 10 9 0 16 -25 22 -33 9 -2 -5 -2 -3
-1 4 2 7 -1 15 -6 18 -6 4 -10 16 -10 27 0 11 -8 27 -17 34 -20 15 -37 18 -30
7 3 -5 -11 -8 -30 -8 -26 0 -40 7 -55 28 -11 15 -26 27 -34 27 -8 0 -11 6 -8
15 5 12 10 13 20 4 7 -6 19 -9 26 -6 8 3 0 17 -24 40 -21 20 -38 42 -38 49 0
9 3 9 10 -2 8 -13 11 -13 27 2 16 17 18 17 26 2 7 -12 5 -19 -7 -26z m39 24
c-3 -3 -11 0 -18 7 -9 10 -8 11 6 5 10 -3 15 -9 12 -12z m-92 -58 c-5 -21 -31
-13 -35 11 -5 24 -4 25 16 12 11 -8 20 -18 19 -23z m287 -150 c0 -8 -5 -12
-10 -9 -6 4 -8 11 -5 16 9 14 15 11 15 -7z m106 -79 c0 -13 -2 -23 -5 -21 -3
2 -14 6 -25 10 -17 6 -18 8 -2 25 9 9 14 20 13 23 -2 3 1 2 7 -3 6 -5 11 -20
12 -34z"/>
<path d="M40675 52806 c-11 -6 -21 -11 -23 -12 -1 -1 0 -9 4 -18 9 -24 34 -20
34 7 0 12 4 18 8 12 4 -5 18 -11 31 -13 25 -2 25 -2 5 16 -22 21 -32 23 -59 8z"/>
<path d="M42547 51141 c-6 -24 12 -32 49 -22 25 6 26 8 9 15 -12 4 -21 3 -23
-3 -2 -6 -8 -11 -14 -11 -6 0 -8 7 -5 15 4 8 2 17 -2 20 -5 2 -11 -4 -14 -14z"/>
<path d="M42740 50936 c0 -9 30 -14 35 -6 4 6 -3 10 -14 10 -12 0 -21 -2 -21
-4z"/>
<path d="M42831 50977 c-8 -10 -7 -14 2 -14 8 0 14 6 14 14 0 7 -1 13 -2 13
-2 0 -8 -6 -14 -13z"/>
<path d="M27139 75398 c-52 -9 -125 -24 -164 -32 -38 -9 -115 -25 -170 -37
-376 -80 -853 -211 -1265 -349 -1259 -420 -2415 -1024 -3489 -1823 -1586
-1181 -2857 -2703 -3736 -4472 -702 -1414 -1120 -2919 -1249 -4495 -53 -646
-53 -1386 -1 -2040 211 -2603 1245 -5080 2954 -7075 390 -455 923 -986 1391
-1386 1930 -1648 4319 -2664 6850 -2914 498 -49 1306 -70 1795 -46 1565 76
3042 426 4460 1056 232 103 565 261 565 269 0 2 -73 42 -162 89 -705 367
-1457 866 -2091 1386 l-196 161 -43 -16 c-24 -8 -108 -35 -188 -59 -786 -239
-1559 -376 -2395 -425 -348 -20 -981 -11 -1350 20 -2179 184 -4188 1050 -5835
2514 -173 153 -641 622 -791 791 -1459 1646 -2327 3654 -2509 5805 -45 535
-45 1165 0 1700 158 1869 841 3650 1977 5158 291 385 542 672 923 1052 387
388 675 639 1074 939 1396 1047 3021 1704 4751 1921 404 50 761 72 1216 73
l357 1 -46 40 c-25 23 -56 50 -68 61 -12 11 -36 31 -54 45 -17 14 -50 44 -74
68 -24 23 -49 42 -56 42 -7 0 -10 7 -6 16 3 8 2 13 -3 10 -7 -5 -35 16 -108
79 -6 5 -30 26 -53 45 -23 19 -55 46 -70 60 -98 86 -136 120 -183 164 -28 27
-54 48 -57 48 -4 0 -58 46 -149 128 -16 14 -47 41 -71 60 -23 19 -57 49 -75
65 -18 17 -54 48 -80 70 -26 22 -64 55 -84 74 -20 18 -58 52 -85 75 -67 56
-76 66 -76 78 0 6 -9 8 -20 5 -11 -3 -18 -2 -15 3 2 4 -8 18 -24 31 -69 58
-147 127 -180 160 -20 20 -58 53 -86 74 -63 47 -86 71 -77 81 4 4 2 5 -4 1
-12 -7 -90 62 -86 76 1 5 -1 6 -6 3 -5 -3 -25 9 -44 27 -20 18 -50 43 -67 57
-17 14 -53 45 -80 70 -61 55 -129 115 -246 216 -49 42 -91 81 -93 86 -2 4 -8
8 -12 8 -5 0 -25 16 -45 35 -19 20 -35 33 -35 30 0 -3 -15 9 -33 28 l-34 33
-94 -18z"/>
<path d="M27455 75241 c-3 -5 -2 -12 3 -15 5 -3 9 1 9 9 0 17 -3 19 -12 6z"/>
<path d="M39789 67983 c-13 -16 -12 -17 4 -4 16 13 21 21 13 21 -2 0 -10 -8
-17 -17z"/>
<path d="M39719 67903 c-13 -16 -12 -17 4 -4 9 7 17 15 17 17 0 8 -8 3 -21
-13z"/>
<path d="M39659 67833 c-13 -16 -12 -17 4 -4 16 13 21 21 13 21 -2 0 -10 -8
-17 -17z"/>
<path d="M39584 67748 l-19 -23 23 19 c12 11 22 21 22 23 0 8 -8 2 -26 -19z"/>
<path d="M39519 67673 c-13 -16 -12 -17 4 -4 16 13 21 21 13 21 -2 0 -10 -8
-17 -17z"/>
<path d="M39449 67593 c-13 -16 -12 -17 4 -4 16 13 21 21 13 21 -2 0 -10 -8
-17 -17z"/>
<path d="M39389 67524 c-11 -14 -24 -52 -14 -42 2 1 3 6 2 9 -1 4 7 16 17 28
11 12 17 21 14 21 -3 0 -12 -7 -19 -16z"/>
<path d="M39407 67493 c-11 -10 -8 -20 8 -26 8 -4 17 -2 20 4 4 5 1 8 -7 7 -7
-2 -12 3 -10 10 2 13 -1 15 -11 5z"/>
<path d="M39319 67444 c-13 -14 -23 -27 -21 -30 5 -9 2 -27 -5 -21 -9 10 -34
-14 -26 -26 3 -5 1 -7 -4 -4 -6 4 -16 1 -22 -7 -9 -11 -9 -15 1 -19 9 -4 7 -6
-4 -6 -9 -1 -108 -106 -219 -233 -111 -128 -211 -243 -222 -255 -20 -22 -20
-22 18 -120 732 -1906 854 -4031 343 -6013 -33 -129 -61 -240 -62 -247 -2 -21
352 -411 594 -654 375 -376 609 -564 836 -670 395 -186 651 -43 878 491 94
223 274 980 366 1545 105 643 149 1149 157 1830 12 957 -62 1750 -248 2665
-63 311 -227 958 -239 946 -3 -2 -6 12 -7 31 -2 42 -1 41 -38 45 -17 2 -36 8
-43 15 -7 6 -33 15 -58 19 -31 4 -42 9 -33 15 10 6 4 9 -18 9 -45 0 -69 10
-51 22 9 6 6 7 -9 3 -18 -5 -23 -2 -24 12 0 10 -3 13 -6 6 -2 -7 -11 -13 -19
-13 -9 0 -12 5 -8 11 4 8 1 8 -12 1 -23 -11 -44 -5 -44 14 0 7 -6 11 -14 8 -8
-3 -25 0 -38 7 -13 7 -43 14 -68 16 -25 2 -49 9 -55 16 -5 7 -18 11 -27 9 -10
-2 -18 1 -18 7 0 6 -13 11 -29 11 -26 0 -30 4 -34 33 l-4 32 -1 -33 c-2 -30
-3 -32 -18 -18 -8 9 -20 14 -25 11 -5 -4 -9 0 -9 7 0 9 -3 9 -10 -2 -6 -10
-10 -11 -10 -2 0 6 -10 12 -22 12 -13 0 -38 9 -56 20 -19 12 -30 15 -26 8 5
-10 4 -11 -7 0 -7 6 -23 12 -35 12 -13 0 -29 7 -38 15 -8 8 -17 11 -20 6 -6
-9 -66 7 -76 21 -3 4 -35 14 -70 23 -86 21 -121 35 -114 46 3 5 3 9 -1 9 -3 0
-10 -10 -15 -22 -6 -16 -9 -18 -9 -6 -1 10 -13 19 -33 23 -18 4 -44 19 -57 33
-15 17 -21 21 -17 10 6 -20 -12 -25 -19 -5 -3 6 -24 13 -46 15 -23 1 -57 9
-76 17 -20 8 -48 15 -64 15 -16 0 -29 4 -29 9 0 5 -13 12 -30 16 -16 4 -30 11
-30 15 0 5 -14 7 -30 5 -28 -3 -30 -1 -25 18 5 16 4 18 -3 8 -11 -15 -62 -8
-62 9 0 6 -11 8 -25 4 -20 -5 -31 0 -50 20 -14 15 -25 23 -25 18 0 -5 -9 -12
-20 -15 -11 -3 -18 -2 -15 3 3 4 -19 14 -48 20 -28 7 -61 17 -72 23 -11 6 -27
12 -36 14 -9 1 -29 8 -45 14 -16 7 -40 12 -54 12 -18 0 -26 5 -26 18 0 17 1
17 19 1 13 -11 17 -12 15 -3 -5 23 19 23 25 0 3 -12 10 -18 16 -14 8 4 6 11
-4 21 -8 9 -15 20 -15 25 0 6 -4 8 -9 5 -10 -7 -23 19 -14 28 10 10 44 -15 36
-27 -4 -7 1 -5 11 3 17 13 17 15 -8 23 -14 5 -23 13 -20 18 4 6 10 6 18 0 8
-7 17 -6 26 1 13 8 12 9 -1 5 -9 -3 -21 -1 -26 4 -6 6 -19 -1 -34 -17z m123
-178 c7 4 8 2 4 -5 -9 -13 -26 -5 -25 12 0 9 2 8 6 -1 2 -6 10 -9 15 -6z m-27
-26 c3 -5 1 -10 -4 -10 -6 0 -11 5 -11 10 0 6 2 10 4 10 3 0 8 -4 11 -10z
m1726 -488 c-7 -2 -18 1 -23 6 -8 8 -4 9 13 5 13 -4 18 -8 10 -11z m9 -42 c0
-5 -5 -10 -11 -10 -5 0 -7 5 -4 10 3 6 8 10 11 10 2 0 4 -4 4 -10z"/>
<path d="M39430 67343 c0 -1 9 -7 20 -13 16 -8 20 -8 20 4 0 9 -8 14 -20 13
-11 -1 -20 -2 -20 -4z"/>
<path d="M39608 67323 c-10 -2 -18 -9 -18 -14 0 -14 26 -11 40 6 13 15 9 16
-22 8z"/>
<path d="M39520 67316 c0 -2 7 -7 16 -10 8 -3 12 -2 9 4 -6 10 -25 14 -25 6z"/>
<path d="M39790 67290 c0 -11 4 -20 9 -20 5 0 7 9 4 20 -3 11 -7 20 -9 20 -2
0 -4 -9 -4 -20z"/>
<path d="M29297 67279 c-198 -23 -385 -223 -521 -558 -45 -111 -169 -580 -242
-914 -178 -818 -267 -1592 -281 -2452 -15 -900 70 -1801 252 -2680 53 -261
109 -497 116 -491 2 2 4 -8 5 -24 1 -15 5 -36 9 -46 4 -11 9 -30 11 -43 2 -13
9 -28 16 -32 14 -9 41 9 33 21 -3 4 2 10 10 14 18 7 16 -15 -3 -29 -11 -9 -11
-13 2 -24 14 -12 16 -11 10 5 -5 16 -3 15 14 -4 12 -12 24 -22 29 -21 30 5 83
-3 78 -11 -4 -6 -11 -7 -17 -4 -7 4 -8 2 -4 -4 9 -14 36 -16 36 -3 0 12 110 5
122 -7 6 -6 16 -9 22 -8 6 2 8 1 4 -1 -15 -9 -8 -25 8 -19 9 4 24 1 32 -6 13
-11 15 -10 9 5 -3 9 -2 17 3 17 6 0 10 -4 10 -9 0 -4 33 -11 72 -15 81 -7 105
-20 67 -35 -14 -6 -17 -10 -9 -10 9 -1 22 5 28 11 10 10 15 10 21 -1 5 -8 11
-9 15 -3 7 11 98 3 106 -9 3 -5 20 -9 38 -11 27 -2 32 -7 33 -28 2 -23 2 -23
6 -2 2 12 10 22 16 22 31 0 87 -23 96 -38 6 -10 11 -12 11 -4 0 7 13 12 33 11
17 0 26 -3 20 -6 -7 -2 -13 -9 -13 -14 0 -6 7 -6 18 0 9 5 28 8 42 6 14 -1 33
-3 44 -4 12 -1 16 -6 12 -16 -3 -8 -1 -15 4 -15 6 0 5 -8 -2 -20 -16 -24 -1
-41 16 -17 17 22 24 22 22 0 0 -10 -12 -21 -25 -25 -30 -9 -33 -6 -33 25 0 20
-6 24 -30 25 -23 1 -28 -3 -24 -14 3 -9 3 -27 0 -41 -5 -18 -12 -23 -25 -20
-11 3 -19 1 -19 -4 0 -5 7 -9 16 -9 8 0 12 -5 9 -10 -4 -6 -11 -8 -16 -5 -5 4
-9 1 -9 -4 0 -6 9 -11 20 -11 11 0 20 -7 20 -16 0 -8 5 -12 11 -9 5 4 26 -1
45 -10 20 -9 44 -15 55 -12 22 6 48 -19 27 -26 -7 -2 -2 -2 12 1 14 2 45 5 69
7 59 4 70 18 40 49 -25 26 -53 32 -78 17 -11 -7 -10 -11 5 -20 16 -9 13 -11
-18 -9 -23 1 -38 7 -38 15 0 7 -6 10 -13 7 -8 -3 -14 1 -14 8 0 7 -4 21 -8 31
-5 12 -2 17 10 17 11 0 15 -5 11 -16 -3 -8 -2 -12 4 -9 6 3 10 12 10 20 0 9
11 13 30 13 17 -1 30 -6 30 -13 0 -6 7 -12 15 -12 22 0 18 15 -11 42 -29 27
-54 34 -35 11 10 -11 9 -14 -1 -12 -22 3 -39 17 -33 27 4 5 0 12 -8 15 -16 6
-30 44 -17 44 5 0 16 -3 25 -6 13 -6 14 -9 3 -16 -9 -7 -5 -8 14 -5 20 3 29
-1 33 -14 5 -15 12 -18 32 -13 20 5 24 4 18 -6 -5 -9 -4 -11 4 -6 6 4 9 12 6
17 -12 18 55 9 72 -10 12 -15 21 -17 40 -10 15 6 31 5 43 -1 10 -5 32 -10 49
-10 20 0 31 -5 31 -14 0 -9 9 -14 20 -13 11 1 20 5 20 10 0 4 5 5 10 2 6 -3
10 -1 10 4 0 6 7 11 17 11 13 0 11 -5 -8 -21 l-24 -22 27 7 c22 5 26 3 22 -9
-8 -19 13 -19 33 0 15 16 38 11 27 -6 -3 -5 -10 -7 -15 -4 -5 4 -9 0 -9 -8 0
-8 -9 -17 -21 -20 -16 -4 -20 -13 -19 -39 3 -50 1 -60 -10 -53 -6 4 -8 11 -4
16 3 5 0 16 -6 24 -10 12 -10 18 0 30 17 21 8 28 -21 16 -13 -5 -18 -10 -11
-10 19 -1 14 -17 -7 -18 -13 -1 -20 7 -24 26 -4 21 -14 31 -33 35 -22 6 -25 9
-13 17 11 8 10 9 -5 7 -26 -4 -33 -28 -8 -28 15 0 19 -5 16 -22 -2 -13 -2 -17
2 -10 10 22 20 13 22 -22 3 -36 -1 -37 -46 -22 -12 4 -20 12 -17 17 3 5 -1 6
-10 3 -14 -6 -14 -8 2 -19 17 -13 16 -14 -7 -25 -21 -9 -13 -10 40 -7 36 3 55
2 43 0 -34 -7 -28 -20 13 -28 26 -4 39 -2 45 7 6 9 9 10 9 1 0 -7 11 -15 25
-19 14 -3 25 -12 25 -19 0 -8 8 -11 20 -8 16 4 20 0 20 -20 0 -20 16 -37 34
-37 8 0 3 47 -7 59 -10 12 -9 13 3 6 8 -5 26 -8 41 -7 16 1 29 -4 33 -13 4
-11 17 -14 48 -11 24 2 55 -3 70 -10 15 -8 40 -15 55 -15 24 -2 24 -2 6 -6
-24 -5 -32 -23 -10 -23 6 0 27 4 45 9 20 6 32 6 32 0 0 -5 9 -9 20 -9 13 0 22
9 26 25 5 21 9 23 21 13 13 -10 15 -9 12 7 -3 12 -12 20 -24 20 -20 0 -35 12
-35 28 0 5 5 5 10 2 6 -3 10 3 10 15 0 12 -4 19 -9 15 -6 -3 -8 4 -6 15 4 21
-3 24 -29 14 -9 -3 -13 -10 -10 -15 3 -5 0 -9 -5 -9 -6 0 -11 7 -11 15 0 29
-38 16 -58 -20 -8 -15 -11 -16 -12 -4 0 8 5 20 12 27 15 15 6 24 -16 16 -9 -3
-13 -11 -9 -17 3 -6 1 -7 -5 -3 -15 9 -15 5 -2 -30 8 -20 8 -29 -2 -35 -6 -4
5 -6 25 -5 20 2 45 -2 54 -9 15 -11 10 -12 -32 -8 -50 6 -110 33 -72 33 11 0
17 8 17 22 0 19 -2 20 -17 6 -10 -8 -27 -13 -37 -10 -15 3 -16 6 -5 13 11 7
11 11 1 17 -16 11 31 38 47 28 6 -4 11 -1 11 8 0 21 -43 14 -70 -12 -12 -11
-19 -25 -15 -31 3 -6 -1 -11 -10 -11 -9 0 -14 -4 -11 -9 8 -12 -48 0 -56 13
-4 7 -9 4 -13 -7 -6 -13 -11 -14 -26 -6 -13 6 -19 6 -19 -1 0 -5 -4 -10 -10
-10 -5 0 -10 7 -10 15 0 10 10 15 31 15 17 0 28 4 24 10 -3 6 -15 10 -25 10
-27 0 -30 22 -6 43 21 18 21 19 2 33 -11 8 -16 14 -10 15 5 0 19 2 32 5 14 2
25 -2 28 -11 7 -17 40 -20 49 -5 4 6 11 7 17 4 7 -4 8 -2 4 4 -5 8 0 12 13 12
12 0 21 -4 21 -8 0 -5 15 -9 33 -10 35 -1 70 -13 100 -34 13 -10 19 -10 25 -1
11 18 62 4 62 -18 0 -21 19 -36 29 -22 3 6 19 12 34 15 22 4 27 2 22 -10 -4
-12 -3 -12 9 -3 7 6 21 8 31 5 19 -8 43 -11 93 -13 22 -1 31 -5 26 -12 -5 -8
1 -10 19 -5 14 3 27 2 29 -4 2 -5 32 -12 68 -15 70 -6 93 -15 40 -15 -18 0
-30 -3 -26 -7 10 -10 90 -11 96 -2 3 5 18 2 33 -6 15 -8 34 -12 42 -8 8 3 15
1 15 -4 0 -5 15 -7 32 -5 30 5 32 3 19 -12 -11 -13 -16 -14 -22 -4 -14 22 -10
2 6 -28 l15 -29 0 26 c0 28 24 46 36 27 4 -6 3 -8 -4 -4 -6 3 -14 1 -18 -5 -4
-8 -3 -9 4 -5 7 4 12 2 12 -4 0 -11 10 -5 51 33 12 10 18 25 15 33 -3 7 -2 13
2 13 44 -7 45 -9 -48 241 -270 733 -465 1596 -545 2405 -31 323 -37 428 -42
841 -10 771 43 1363 188 2088 38 189 146 645 181 763 10 34 -720 800 -946 993
-367 311 -621 435 -839 409z m-497 -7104 c0 -8 -3 -15 -6 -15 -3 0 -12 7 -20
15 -14 13 -13 15 5 15 12 0 21 -6 21 -15z m-60 -9 c0 -2 -7 -7 -16 -10 -8 -3
-12 -2 -9 4 6 10 25 14 25 6z m515 -76 c3 -5 1 -10 -4 -10 -6 0 -11 5 -11 10
0 6 2 10 4 10 3 0 8 -4 11 -10z m185 -40 c0 -5 -2 -10 -4 -10 -3 0 -8 5 -11
10 -3 6 -1 10 4 10 6 0 11 -4 11 -10z m-192 -7 c-10 -2 -26 -2 -35 0 -10 3 -2
5 17 5 19 0 27 -2 18 -5z m-313 -23 c-11 -5 -29 -8 -40 -8 -16 0 -15 2 5 8 34
11 60 11 35 0z m662 -36 c-3 -3 -12 -4 -19 -1 -8 3 -5 6 6 6 11 1 17 -2 13 -5z
m33 -104 c0 -5 -7 -7 -15 -4 -8 4 -15 8 -15 10 0 2 7 4 15 4 8 0 15 -4 15 -10z
m433 3 c-13 -2 -33 -2 -45 0 -13 2 -3 4 22 4 25 0 35 -2 23 -4z m277 -47 c0
-3 -4 -8 -10 -11 -5 -3 -10 -1 -10 4 0 6 5 11 10 11 6 0 10 -2 10 -4z m-500
-18 c0 -4 -9 -8 -20 -8 -11 0 -20 4 -20 8 0 4 9 8 20 8 11 0 20 -4 20 -8z m70
-2 c0 -2 -9 -6 -20 -9 -11 -3 -18 -1 -14 4 5 9 34 13 34 5z m-216 -138 c-3 -4
-11 -2 -18 5 -8 6 -11 17 -8 22 4 6 7 13 8 18 4 21 6 20 14 -7 5 -16 7 -33 4
-38z m566 48 c0 -2 -9 -6 -20 -9 -11 -3 -18 -1 -14 4 5 9 34 13 34 5z m90 -56
c-8 -5 -17 -7 -19 -4 -3 3 1 9 9 14 8 5 17 7 19 4 3 -3 -1 -9 -9 -14z m-657
-13 c4 3 7 1 7 -6 0 -8 -6 -11 -16 -7 -9 3 -20 6 -25 6 -5 0 -9 7 -9 17 0 15
1 15 18 0 10 -10 22 -14 25 -10z m37 8 c0 -8 -4 -15 -10 -15 -5 0 -10 7 -10
15 0 8 5 15 10 15 6 0 10 -7 10 -15z m1420 5 c0 -5 -4 -10 -9 -10 -6 0 -13 5
-16 10 -3 6 1 10 9 10 9 0 16 -4 16 -10z m13 -27 c-7 -2 -19 -2 -25 0 -7 3 -2
5 12 5 14 0 19 -2 13 -5z m-1273 -23 c0 -5 -9 -10 -20 -10 -11 0 -20 5 -20 10
0 6 9 10 20 10 11 0 20 -4 20 -10z m275 -30 c3 -5 1 -10 -4 -10 -6 0 -11 5
-11 10 0 6 2 10 4 10 3 0 8 -4 11 -10z m69 -25 c-4 -8 -10 -15 -15 -15 -4 0
-6 7 -3 15 4 8 10 15 15 15 4 0 6 -7 3 -15z m319 -5 c-3 -12 -8 -19 -11 -16
-5 6 5 36 12 36 2 0 2 -9 -1 -20z m434 14 c-3 -3 -12 -4 -19 -1 -8 3 -5 6 6 6
11 1 17 -2 13 -5z m-404 -44 c3 -12 0 -20 -8 -20 -8 0 -11 8 -8 20 3 11 7 20
8 20 1 0 5 -9 8 -20z m30 -20 c-8 -29 -21 -25 -15 5 2 14 8 23 12 20 5 -3 6
-14 3 -25z m720 -5 c-4 -12 -7 -12 -20 0 -8 8 -11 20 -8 25 10 16 35 -8 28
-25z m-923 11 c0 -3 -4 -8 -10 -11 -5 -3 -10 -1 -10 4 0 6 5 11 10 11 6 0 10
-2 10 -4z m24 -11 c-4 -8 -10 -15 -15 -15 -4 0 -6 7 -3 15 4 8 10 15 15 15 4
0 6 -7 3 -15z m200 -41 c9 -24 7 -28 -9 -14 -17 14 -20 30 -6 30 5 0 12 -7 15
-16z"/>
<path d="M39638 67273 c7 -3 16 -2 19 1 4 3 -2 6 -13 5 -11 0 -14 -3 -6 -6z"/>
<path d="M39843 67243 c-3 -10 -8 -22 -11 -27 -3 -5 0 -6 5 -3 11 7 25 47 17
47 -3 0 -7 -8 -11 -17z"/>
<path d="M39815 67240 c3 -5 8 -10 11 -10 2 0 4 5 4 10 0 6 -5 10 -11 10 -5 0
-7 -4 -4 -10z"/>
<path d="M40010 67233 c0 -5 5 -15 10 -23 7 -12 9 -10 7 8 -1 19 -17 33 -17
15z"/>
<path d="M40250 67235 c0 -5 5 -17 10 -25 5 -8 10 -10 10 -5 0 6 -5 17 -10 25
-5 8 -10 11 -10 5z"/>
<path d="M39910 67180 c0 -5 4 -10 9 -10 6 0 13 5 16 10 3 6 -1 10 -9 10 -9 0
-16 -4 -16 -10z"/>
<path d="M40368 67183 c7 -3 16 -2 19 1 4 3 -2 6 -13 5 -11 0 -14 -3 -6 -6z"/>
<path d="M40021 67166 c2 -2 22 -6 44 -9 27 -4 35 -3 25 3 -14 9 -79 15 -69 6z"/>
<path d="M40160 67140 c0 -5 5 -10 10 -10 6 0 10 5 10 10 0 6 -4 10 -10 10 -5
0 -10 -4 -10 -10z"/>
<path d="M40560 67130 c0 -5 5 -10 11 -10 5 0 7 5 4 10 -3 6 -8 10 -11 10 -2
0 -4 -4 -4 -10z"/>
<path d="M40345 67100 c3 -5 8 -10 11 -10 2 0 4 5 4 10 0 6 -5 10 -11 10 -5 0
-7 -4 -4 -10z"/>
<path d="M40248 67093 c7 -3 16 -2 19 1 4 3 -2 6 -13 5 -11 0 -14 -3 -6 -6z"/>
<path d="M40362 67060 c7 -11 16 -20 20 -20 5 0 3 9 -4 20 -7 11 -16 20 -20
20 -5 0 -3 -9 4 -20z"/>
<path d="M40488 67033 c6 -2 18 -2 25 0 6 3 1 5 -13 5 -14 0 -19 -2 -12 -5z"/>
<path d="M40410 67026 c0 -2 9 -6 20 -9 11 -3 18 -1 14 4 -5 9 -34 13 -34 5z"/>
<path d="M40563 67013 c10 -3 16 -11 13 -18 -3 -9 2 -12 15 -10 10 2 19 -1 19
-7 0 -6 3 -9 6 -6 13 14 -16 44 -43 45 -15 0 -20 -1 -10 -4z"/>
<path d="M40950 67011 c0 -6 4 -13 10 -16 6 -3 7 1 4 9 -7 18 -14 21 -14 7z"/>
<path d="M40877 66989 c4 -13 8 -18 11 -10 2 7 -1 18 -6 23 -8 8 -9 4 -5 -13z"/>
<path d="M41315 67001 c-3 -5 -1 -12 5 -16 5 -3 10 1 10 9 0 18 -6 21 -15 7z"/>
<path d="M41048 66963 c7 -3 16 -2 19 1 4 3 -2 6 -13 5 -11 0 -14 -3 -6 -6z"/>
<path d="M40817 66939 c7 -7 15 -10 18 -7 3 3 -2 9 -12 12 -14 6 -15 5 -6 -5z"/>
<path d="M40880 66902 c0 -12 19 -26 26 -19 2 2 -2 10 -11 17 -9 8 -15 8 -15
2z"/>
<path d="M41284 66883 c3 -19 46 -28 46 -10 0 5 10 7 21 4 16 -4 19 -3 11 5
-9 9 -18 8 -37 0 -31 -14 -38 -15 -30 -3 3 5 1 12 -4 15 -5 4 -8 -2 -7 -11z"/>
<path d="M40930 66860 c0 -5 5 -10 11 -10 5 0 7 5 4 10 -3 6 -8 10 -11 10 -2
0 -4 -4 -4 -10z"/>
<path d="M41098 66845 c2 -14 6 -25 8 -25 2 0 4 11 4 25 0 14 -4 25 -9 25 -4
0 -6 -11 -3 -25z"/>
<path d="M41370 66821 c10 -7 11 -11 3 -11 -7 0 -13 -5 -13 -11 0 -5 5 -7 10
-4 6 3 10 2 10 -4 0 -5 -8 -15 -17 -20 -10 -6 -13 -11 -6 -11 6 0 15 5 18 10
4 6 10 8 15 5 4 -3 5 7 1 22 -4 15 -14 28 -22 31 -11 3 -11 2 1 -7z"/>
<path d="M41380 66745 c0 -8 -4 -15 -10 -15 -5 0 -10 -5 -10 -12 0 -6 3 -8 7
-5 3 4 13 1 22 -5 9 -7 13 -9 9 -4 -4 5 -3 17 2 26 7 13 6 20 -5 24 -9 3 -15
0 -15 -9z"/>
<path d="M41335 66740 c-3 -5 -1 -10 4 -10 6 0 11 5 11 10 0 6 -2 10 -4 10 -3
0 -8 -4 -11 -10z"/>
<path d="M28670 59976 c0 -8 4 -17 9 -20 5 -4 7 3 4 14 -6 23 -13 26 -13 6z"/>
<path d="M28695 59980 c-3 -5 -1 -10 4 -10 6 0 11 5 11 10 0 6 -2 10 -4 10 -3
0 -8 -4 -11 -10z"/>
<path d="M28706 59944 c-3 -8 -11 -12 -17 -8 -13 8 7 -33 28 -58 11 -12 11
-18 2 -24 -8 -4 -10 -3 -5 4 4 7 2 12 -3 12 -19 0 -12 -18 17 -38 22 -17 25
-23 15 -33 -7 -7 -13 -17 -13 -22 0 -5 7 -2 15 7 8 8 15 22 15 30 0 9 4 16 9
16 5 0 8 -8 6 -17 -1 -10 0 -13 2 -7 6 18 41 23 53 8 15 -17 2 -37 -20 -31
-12 3 -17 -1 -16 -11 3 -17 52 -26 61 -11 9 14 28 11 22 -4 -4 -10 13 -16 63
-23 50 -7 66 -6 63 2 -2 6 -16 11 -31 11 -49 -1 -89 21 -89 49 0 30 11 31 31
3 11 -16 21 -20 40 -15 14 3 28 1 31 -5 4 -6 14 -8 22 -5 10 4 13 2 10 -8 -6
-16 34 -28 54 -15 8 4 30 5 51 3 44 -7 52 10 13 28 -13 6 -22 15 -19 19 10 16
29 9 39 -13 10 -24 45 -38 45 -19 0 6 -7 11 -15 11 -8 0 -15 7 -15 17 0 15 2
15 19 -1 15 -13 20 -14 25 -4 3 7 3 3 0 -9 -3 -13 -1 -23 5 -23 6 0 11 5 11
10 0 6 11 10 25 10 14 0 25 -5 25 -11 0 -6 -9 -8 -20 -4 -21 7 -28 -10 -7 -18
9 -4 9 -6 -1 -6 -8 -1 -10 -6 -6 -13 6 -10 4 -10 -7 -2 -17 14 -69 24 -69 14
0 -4 11 -11 25 -14 14 -4 25 -11 25 -16 0 -6 9 -6 23 -2 28 10 37 9 67 -8 l25
-14 -30 -6 -30 -6 25 -13 c17 -10 25 -11 28 -2 2 6 8 9 13 5 5 -3 9 -2 8 3 -1
4 2 18 6 31 7 22 9 22 26 6 24 -22 24 -31 -1 -39 -11 -3 -20 -11 -20 -16 0 -5
9 -9 20 -9 11 0 19 3 18 8 -4 19 17 42 39 42 13 0 21 -4 18 -10 -9 -14 33 -12
49 2 7 7 11 20 8 30 -3 14 0 17 12 12 12 -5 19 0 23 15 3 11 10 21 17 22 6 0
2 4 -9 9 -28 12 -37 12 -29 -2 4 -7 3 -8 -5 -4 -9 6 -9 11 0 22 9 11 8 14 -8
14 -11 0 -23 3 -26 7 -10 10 -58 13 -52 3 5 -9 -55 -33 -63 -26 -2 3 7 8 22
12 36 9 33 19 -6 21 -18 2 -34 7 -36 13 -2 6 -8 8 -13 4 -5 -3 -9 2 -9 12 0
13 6 15 30 10 19 -3 29 -2 25 4 -12 19 -61 11 -72 -12 -9 -21 -10 -21 -24 10
-10 24 -18 30 -32 26 -10 -3 -38 -6 -63 -6 -24 0 -42 -4 -38 -9 3 -5 11 -9 19
-9 14 0 27 -24 18 -34 -4 -3 -11 -6 -17 -6 -6 0 -4 5 4 11 11 8 8 9 -15 4 -23
-5 -27 -4 -18 6 9 9 8 15 -3 26 -7 8 -18 11 -24 8 -5 -3 -10 -2 -10 3 0 5 9
12 20 15 11 3 20 13 20 22 0 14 -2 14 -25 -2 -13 -10 -25 -21 -25 -26 0 -4
-11 0 -25 9 -23 15 -25 15 -25 0 0 -9 -7 -16 -15 -16 -8 0 -15 -6 -15 -13 0
-7 -9 -13 -20 -13 -11 0 -20 4 -20 8 0 4 7 8 15 8 8 0 15 5 15 10 0 6 -5 10
-11 10 -5 0 -8 4 -4 9 9 16 -15 24 -30 11 -8 -7 -26 -10 -40 -8 -20 4 -23 3
-14 -8 9 -11 7 -14 -9 -14 -11 0 -22 -7 -26 -15 -3 -8 -10 -15 -16 -15 -18 0
-11 32 11 51 11 10 18 23 14 28 -10 17 -25 13 -25 -8 0 -18 -27 -37 -38 -26
-3 3 0 5 6 5 7 0 12 9 12 20 0 32 -30 24 -31 -7 0 -16 -3 -22 -6 -15 -2 6 -13
12 -23 12 -19 0 -36 17 -27 26 3 3 14 1 26 -5 16 -9 20 -8 18 7 -1 24 -82 30
-91 6z m18 -38 c-6 -16 -8 -17 -16 -2 -11 19 0 42 13 29 6 -6 7 -18 3 -27z
m67 -33 c1 -17 3 -21 6 -10 5 17 33 24 33 8 0 -12 -29 -41 -41 -41 -5 0 -9 14
-9 31 0 27 -2 30 -15 19 -12 -10 -15 -10 -15 4 0 9 8 16 20 16 15 0 20 -7 21
-27z m476 -18 c-8 -19 -47 -20 -47 0 0 8 6 12 14 9 8 -3 17 0 21 6 10 16 19 4
12 -15z m-327 5 c0 -5 -4 -10 -10 -10 -5 0 -10 5 -10 10 0 6 5 10 10 10 6 0
10 -4 10 -10z m30 2 c0 -5 -7 -17 -16 -28 -14 -17 -15 -17 -10 -1 3 10 6 23 6
28 0 5 5 9 10 9 6 0 10 -4 10 -8z m80 -7 c0 -8 -4 -15 -10 -15 -5 0 -10 7 -10
15 0 8 5 15 10 15 6 0 10 -7 10 -15z m53 -19 c-1 -12 4 -16 15 -11 12 4 10 0
-5 -14 -12 -12 -24 -21 -26 -21 -1 0 -3 16 -4 36 -1 22 3 34 10 31 7 -2 11
-12 10 -21z m-238 -24 c-6 -7 -34 11 -29 19 3 5 11 3 19 -4 7 -6 12 -13 10
-15z m60 18 c3 -5 2 -10 -4 -10 -5 0 -13 5 -16 10 -3 6 -2 10 4 10 5 0 13 -4
16 -10z m131 -37 c-2 -2 -18 -6 -36 -8 -27 -4 -30 -2 -19 11 7 8 19 12 27 9
13 -5 13 -3 1 12 -11 15 -10 15 9 -1 12 -11 20 -21 18 -23z m19 27 c3 -5 1
-10 -4 -10 -6 0 -11 5 -11 10 0 6 2 10 4 10 3 0 8 -4 11 -10z m-95 -10 c0 -5
-2 -10 -4 -10 -3 0 -8 5 -11 10 -3 6 -1 10 4 10 6 0 11 -4 11 -10z m323 -1
c29 -1 45 -3 36 -6 -30 -8 -11 -43 25 -44 17 -1 23 -3 14 -6 -10 -2 -18 -9
-18 -14 0 -5 -9 -4 -20 3 -17 11 -22 10 -31 -2 -8 -12 -9 -10 -4 8 4 13 2 22
-4 22 -6 0 -11 6 -11 14 0 10 -8 13 -21 11 -12 -2 -29 3 -38 12 -15 16 -15 16
2 10 10 -4 42 -8 70 -8z m157 -18 c0 -5 -7 -11 -15 -15 -15 -5 -20 5 -8 17 9
10 23 9 23 -2z m-600 -11 c0 -5 -4 -10 -10 -10 -5 0 -10 5 -10 10 0 6 5 10 10
10 6 0 10 -4 10 -10z m264 -9 c4 -5 -3 -7 -14 -4 -23 6 -26 13 -6 13 8 0 17
-4 20 -9z m374 -10 c3 -8 -1 -12 -9 -9 -7 2 -15 10 -17 17 -3 8 1 12 9 9 7 -2
15 -10 17 -17z m-21 -18 c13 -14 23 -30 23 -34 0 -12 -20 -22 -28 -14 -3 3 0
10 7 14 10 7 8 12 -10 25 -31 21 -37 20 -41 -6 -3 -22 -38 -40 -38 -20 0 10
49 62 59 62 3 0 16 -12 28 -27z m-137 -33 c0 -5 -2 -10 -4 -10 -3 0 -8 5 -11
10 -3 6 -1 10 4 10 6 0 11 -4 11 -10z"/>
<path d="M28922 59944 c-13 -14 -11 -16 18 -18 14 -1 40 17 40 27 0 11 -46 3
-58 -9z"/>
<path d="M29010 59906 c0 -2 7 -7 16 -10 8 -3 12 -2 9 4 -6 10 -25 14 -25 6z"/>
<path d="M29405 59840 c-3 -5 -1 -10 4 -10 6 0 11 5 11 10 0 6 -2 10 -4 10 -3
0 -8 -4 -11 -10z"/>
<path d="M29495 59833 c11 -3 26 -10 34 -17 11 -9 13 -8 9 4 -2 8 -18 16 -34
17 -18 1 -22 0 -9 -4z"/>
<path d="M29561 59791 c-9 -6 -6 -10 13 -15 16 -4 23 -11 20 -20 -3 -9 -12
-12 -22 -8 -15 5 -15 4 -3 -11 9 -11 10 -17 2 -18 -38 -5 -39 -5 -47 -55 -3
-21 -7 -40 -8 -42 -2 -1 -17 5 -35 14 -18 9 -35 13 -38 10 -9 -9 67 -38 83
-32 7 3 16 1 19 -4 4 -6 16 -10 28 -9 l22 0 -22 9 c-25 10 -30 26 -10 33 9 4
8 8 -3 17 -12 9 -11 10 6 5 18 -4 21 -1 20 17 -1 15 7 26 22 33 25 11 32 65 8
65 -8 0 -17 6 -19 13 -4 8 -6 7 -6 -3 -1 -11 -3 -12 -9 -3 -4 7 -13 9 -21 4z"/>
<path d="M29062 59717 c19 -19 61 -28 78 -16 12 8 11 10 -5 8 -33 -2 -41 1
-25 11 11 7 5 10 -23 10 -32 0 -36 -2 -25 -13z"/>
<path d="M29876 59711 c-4 -6 -2 -11 3 -11 6 0 11 -7 11 -15 0 -22 21 -18 27
5 3 11 12 20 20 20 12 0 12 -2 -1 -15 -16 -17 -11 -45 11 -58 7 -4 13 -19 13
-32 0 -21 -5 -25 -32 -26 -32 0 -32 -1 -9 -10 30 -12 51 -5 51 17 0 12 7 15
25 12 20 -4 23 -2 14 8 -8 9 -5 15 11 24 11 6 24 9 29 6 4 -3 8 1 8 9 0 8 -6
15 -14 15 -7 0 -13 5 -13 11 0 7 -10 9 -25 5 -14 -4 -25 -2 -25 3 0 5 12 12
28 14 21 3 19 5 -13 7 -39 2 -39 3 -10 10 26 7 23 8 -22 9 -28 0 -55 -4 -59
-10 -5 -8 -9 -8 -14 1 -5 9 -9 9 -14 1z m94 -37 c0 -10 7 -14 22 -12 11 2 23
-3 26 -11 3 -9 0 -11 -7 -6 -7 4 -18 -1 -26 -11 -12 -15 -15 -16 -16 -4 -1 8
-1 19 0 23 1 4 -6 10 -14 13 -19 8 -19 24 0 24 8 0 15 -7 15 -16z"/>
<path d="M29793 59685 c-13 -15 -17 -35 -7 -35 10 0 34 28 34 39 0 15 -12 13
-27 -4z"/>
<path d="M30120 59680 c0 -5 5 -10 11 -10 5 0 7 5 4 10 -3 6 -8 10 -11 10 -2
0 -4 -4 -4 -10z"/>
<path d="M29605 59630 c-3 -5 1 -10 9 -10 9 0 16 5 16 10 0 6 -4 10 -9 10 -6
0 -13 -4 -16 -10z"/>
<path d="M30062 59621 c-11 -7 -11 -9 0 -14 9 -3 15 1 15 9 0 8 -1 14 -1 14
-1 0 -7 -4 -14 -9z"/>
<path d="M30350 59620 c-8 -5 -28 -10 -43 -10 -32 0 -32 -17 -1 -34 10 -6 22
-15 26 -21 5 -6 8 -3 8 7 0 9 -8 19 -17 21 -17 4 -17 5 0 6 9 0 17 6 17 11 0
7 13 8 35 4 23 -4 35 -2 35 5 0 6 -4 11 -9 11 -5 0 -15 2 -23 5 -7 3 -20 0
-28 -5z"/>
<path d="M29643 59613 c-19 -7 -15 -22 5 -18 9 2 20 4 25 4 4 1 7 6 7 11 0 10
-16 12 -37 3z"/>
<path d="M30490 59610 c0 -5 5 -10 10 -10 6 0 10 5 10 10 0 6 -4 10 -10 10 -5
0 -10 -4 -10 -10z"/>
<path d="M29930 59599 c0 -5 5 -7 10 -4 6 3 10 8 10 11 0 2 -4 4 -10 4 -5 0
-10 -5 -10 -11z"/>
<path d="M30347 59571 c3 -12 11 -17 19 -14 21 8 17 33 -5 33 -14 0 -18 -5
-14 -19z"/>
<path d="M30443 59570 c-1 -11 2 -20 6 -20 5 0 11 9 14 20 3 12 0 20 -7 20 -6
0 -12 -9 -13 -20z"/>
<path d="M29710 59576 c0 -2 9 -6 20 -9 11 -3 18 -1 14 4 -5 9 -34 13 -34 5z"/>
<path d="M29848 59574 c-3 -3 -25 -5 -47 -6 -55 -1 -46 -7 28 -23 63 -13 78
-11 39 5 -19 7 -19 9 -5 9 10 1 15 6 12 11 -7 11 -19 13 -27 4z"/>
<path d="M30695 59543 c-5 -12 -9 -14 -12 -5 -6 16 -23 6 -23 -14 0 -8 4 -12
10 -9 5 3 16 1 23 -6 16 -16 9 -69 -9 -69 -8 0 -14 -4 -14 -10 0 -5 -7 -10
-15 -10 -8 0 -15 -4 -15 -10 0 -5 -10 -10 -22 -11 -16 0 -10 -5 17 -13 37 -11
40 -10 45 8 4 13 18 23 40 27 39 8 51 4 44 -15 -3 -7 7 -18 21 -24 14 -6 25
-17 25 -23 0 -7 12 -9 35 -5 33 6 49 -5 25 -17 -6 -3 -5 -4 2 -3 7 2 12 13 11
25 -2 13 3 21 12 21 18 0 28 -17 16 -25 -16 -9 -2 -32 22 -39 21 -5 21 -4 -2
13 l-24 19 22 11 c12 7 19 16 16 22 -8 11 19 39 37 39 9 0 10 -2 1 -8 -6 -4
-15 -20 -18 -35 -6 -23 -4 -27 14 -27 12 0 21 5 21 10 0 6 -5 10 -12 10 -9 0
-9 3 0 12 9 9 16 6 30 -10 11 -12 24 -22 31 -22 19 0 12 16 -14 30 -16 8 -25
22 -25 37 0 13 -5 23 -10 23 -6 0 -5 8 2 20 11 17 10 22 -2 30 -24 16 -31 12
-24 -14 7 -28 -2 -49 -17 -40 -6 4 -6 10 1 19 12 14 3 45 -12 45 -6 0 -8 -16
-6 -35 3 -26 0 -35 -10 -35 -11 0 -13 8 -8 30 3 17 1 30 -4 30 -6 0 -10 -13
-10 -30 0 -16 -5 -30 -11 -30 -7 0 -8 16 -3 46 5 34 4 45 -5 40 -7 -5 -11 1
-11 15 0 21 -1 22 -20 4 -11 -10 -23 -15 -27 -12 -3 4 -11 -3 -17 -15 -15 -30
-38 -33 -54 -8 -9 15 -10 26 -2 40 10 18 7 20 -24 20 -23 0 -36 -6 -41 -17z
m38 -2 c3 8 6 9 6 3 1 -6 -6 -17 -14 -24 -13 -10 -15 -9 -15 11 0 17 3 20 9
10 7 -11 9 -11 14 0z m132 -88 c-12 -18 -14 -28 -7 -31 7 -2 12 -12 12 -23 0
-15 -7 -19 -35 -19 -19 0 -36 5 -36 10 -1 6 -2 16 -3 23 -1 6 -8 15 -16 19
-10 4 -6 7 13 7 15 1 27 -3 27 -9 0 -21 16 -8 32 25 10 19 15 43 12 52 -2 10
1 8 7 -4 10 -18 8 -27 -6 -50z m-115 31 c0 -8 9 -14 20 -14 11 0 20 -5 20 -11
0 -7 -10 -9 -25 -5 -18 5 -25 2 -25 -9 0 -8 -5 -15 -11 -15 -7 0 -9 9 -5 23 3
12 6 30 6 40 0 10 5 15 10 12 6 -3 10 -13 10 -21z m94 1 c-7 -16 -24 -21 -24
-6 0 8 7 13 27 20 1 1 0 -6 -3 -14z m-184 -85 c0 -5 -5 -10 -11 -10 -5 0 -7 5
-4 10 3 6 8 10 11 10 2 0 4 -4 4 -10z m270 -10 c0 -5 -4 -10 -10 -10 -5 0 -10
5 -10 10 0 6 5 10 10 10 6 0 10 -4 10 -10z"/>
<path d="M30845 59550 c-3 -5 -1 -10 4 -10 6 0 11 5 11 10 0 6 -2 10 -4 10 -3
0 -8 -4 -11 -10z"/>
<path d="M29930 59544 c0 -14 53 -34 75 -28 11 3 34 0 50 -7 17 -6 37 -13 45
-14 8 -1 25 -5 37 -9 15 -5 31 -2 45 8 l22 16 -22 0 c-12 0 -22 -4 -22 -9 0
-9 -71 8 -80 20 -3 3 -27 9 -55 12 -27 3 -60 9 -72 12 -13 4 -23 3 -23 -1z"/>
<path d="M30767 59533 c-13 -12 -7 -24 11 -21 10 2 16 -2 14 -10 -1 -8 2 -11
8 -7 7 4 7 12 0 26 -11 20 -22 24 -33 12z"/>
<path d="M31031 59493 c0 -6 -4 -19 -8 -29 -4 -12 -3 -15 5 -10 8 5 11 0 9
-16 -1 -18 4 -24 22 -26 15 -2 30 3 37 12 11 15 12 15 18 1 3 -9 2 -13 -4 -10
-6 3 -10 -5 -10 -18 0 -21 4 -24 28 -21 15 2 20 1 12 -2 -8 -4 -18 -11 -21
-16 -3 -5 -15 2 -27 16 -11 14 -28 26 -38 26 -15 0 -12 -6 14 -29 26 -25 29
-30 14 -33 -9 -3 3 -5 28 -5 25 0 50 4 57 9 7 5 16 8 20 5 4 -2 16 3 26 13 16
16 16 18 2 24 -9 3 -14 2 -11 -3 10 -16 -38 1 -56 19 -16 17 -15 17 11 15 15
-1 33 -5 39 -9 6 -4 4 6 -5 23 -16 27 -21 29 -61 25 -24 -2 -48 -6 -53 -10 -5
-3 -9 2 -9 10 0 9 -6 13 -14 10 -9 -4 -16 3 -19 18 -2 13 -5 18 -6 11z m42
-70 c-7 -2 -19 -2 -25 0 -7 3 -2 5 12 5 14 0 19 -2 13 -5z"/>
<path d="M30180 59478 c0 -4 13 -6 30 -5 16 1 30 5 30 9 0 4 -13 6 -30 5 -16
-1 -30 -5 -30 -9z"/>
<path d="M31098 59473 c7 -3 16 -2 19 1 4 3 -2 6 -13 5 -11 0 -14 -3 -6 -6z"/>
<path d="M30377 59452 c-15 -2 -25 -8 -22 -13 8 -12 42 -11 50 2 9 14 5 15
-28 11z"/>
<path d="M30430 59444 c0 -10 6 -14 15 -10 8 3 15 1 15 -4 0 -6 5 -10 10 -10
6 0 10 9 10 20 0 15 -7 20 -25 20 -16 0 -25 -6 -25 -16z"/>
<path d="M31210 59440 c0 -5 5 -10 11 -10 5 0 7 5 4 10 -3 6 -8 10 -11 10 -2
0 -4 -4 -4 -10z"/>
<path d="M30520 59416 c0 -2 9 -6 20 -9 11 -3 20 -1 20 4 0 5 -9 9 -20 9 -11
0 -20 -2 -20 -4z"/>
<path d="M31226 59405 c-3 -8 -1 -15 4 -15 6 0 10 5 10 11 0 5 5 7 12 3 7 -4
8 -3 4 4 -10 16 -23 15 -30 -3z"/>
<path d="M30720 59370 c0 -6 12 -10 27 -10 29 0 24 12 -7 17 -11 2 -20 -2 -20
-7z"/>
<path d="M30986 59325 c-3 -8 -1 -15 4 -15 6 0 10 7 10 15 0 8 -2 15 -4 15 -2
0 -6 -7 -10 -15z"/>
<path d="M31014 59325 c-9 -21 -2 -26 13 -10 8 9 9 16 3 20 -6 3 -13 -1 -16
-10z"/>
<path d="M31060 59304 l-25 -14 28 0 c16 0 36 -4 46 -10 15 -8 17 -6 13 15 -5
28 -24 31 -62 9z"/>
<path d="M31139 59303 c-13 -16 -12 -17 4 -4 16 13 21 21 13 21 -2 0 -10 -8
-17 -17z"/>
<path d="M40467 53029 c7 -7 15 -10 18 -7 3 3 -2 9 -12 12 -14 6 -15 5 -6 -5z"/>
<path d="M40410 52992 c0 -4 9 -13 20 -20 11 -7 20 -9 20 -4 0 4 -9 13 -20 20
-11 7 -20 9 -20 4z"/>
<path d="M40957 52460 c26 -27 35 -32 45 -22 18 18 32 14 17 -5 -12 -15 -12
-16 4 -10 10 4 23 7 29 7 6 0 6 6 -2 15 -7 8 -28 15 -48 15 -19 0 -45 8 -56
17 -12 9 -6 2 11 -17z"/>
<path d="M41080 52440 c0 -5 5 -10 10 -10 6 0 10 5 10 10 0 6 -4 10 -10 10 -5
0 -10 -4 -10 -10z"/>
<path d="M41025 52400 c3 -5 14 -10 23 -10 15 0 15 2 2 10 -20 13 -33 13 -25
0z"/>
<path d="M41120 52349 c0 -5 5 -7 10 -4 6 3 10 8 10 11 0 2 -4 4 -10 4 -5 0
-10 -5 -10 -11z"/>
<path d="M41563 52048 c-19 -25 -24 -38 -14 -38 11 0 35 39 28 46 -2 3 -9 -1
-14 -8z"/>
<path d="M41495 52009 c-4 -6 -5 -13 -2 -16 7 -7 27 6 27 18 0 12 -17 12 -25
-2z"/>
<path d="M42021 51604 c0 -11 3 -14 6 -6 3 7 2 16 -1 19 -3 4 -6 -2 -5 -13z"/>
<path d="M42030 51578 c-33 -12 -35 -15 -17 -33 10 -9 18 -11 22 -5 3 5 3 10
-1 10 -4 0 1 6 12 14 25 18 16 26 -16 14z"/>
<path d="M42060 51540 c0 -5 5 -10 10 -10 6 0 10 5 10 10 0 6 -4 10 -10 10 -5
0 -10 -4 -10 -10z"/>
<path d="M42040 51520 c0 -13 18 -22 24 -11 3 5 -1 11 -9 15 -8 3 -15 1 -15
-4z"/>
<path d="M42080 51492 c0 -1 15 -19 34 -38 34 -35 35 -35 46 -15 6 12 7 21 1
21 -5 0 -12 -6 -14 -12 -3 -7 -6 -2 -6 12 -1 18 -4 21 -10 12 -7 -11 -9 -11
-14 2 -3 8 -1 17 6 20 7 2 0 4 -15 3 -16 -1 -28 -3 -28 -5z"/>
<path d="M42150 51490 c8 -5 20 -10 25 -10 6 0 3 5 -5 10 -8 5 -19 10 -25 10
-5 0 -3 -5 5 -10z"/>
<path d="M42266 51340 c-14 -4 -16 -9 -8 -14 7 -4 17 -4 24 0 6 4 8 3 5 -3
-10 -17 38 -63 54 -52 11 7 11 9 -3 9 -10 0 -26 15 -35 34 -14 26 -22 32 -37
26z"/>
<path d="M42370 51300 c0 -5 5 -10 10 -10 6 0 10 5 10 10 0 6 -4 10 -10 10 -5
0 -10 -4 -10 -10z"/>
<path d="M64540 46440 l0 -130 180 0 180 0 0 -542 0 -543 162 2 c90 1 166 3
171 3 4 0 7 243 7 540 l0 540 175 0 175 0 0 130 0 130 -525 0 -525 0 0 -130z"/>
<path d="M65742 45899 l3 -670 135 0 135 0 5 548 5 548 37 -110 c20 -60 98
-301 173 -535 74 -234 139 -431 143 -438 9 -17 220 -21 231 -4 3 6 85 252 181
546 96 295 178 536 183 536 4 0 7 -245 7 -545 l0 -545 75 0 c41 -1 111 -1 155
-1 44 0 85 0 90 1 7 0 10 230 10 670 l0 670 -262 -2 -262 -3 -130 -397 c-72
-219 -133 -398 -136 -398 -4 0 -62 180 -131 400 l-124 400 -263 0 -262 0 2
-671z"/>
<path d="M51340 39395 l0 -6975 1060 0 1060 0 0 6975 0 6975 -1060 0 -1060 0
0 -6975z"/>
<path d="M22625 46189 c-2463 -153 -4670 -1554 -5856 -3715 -995 -1814 -1128
-4013 -358 -5941 482 -1210 1289 -2258 2354 -3060 594 -447 1316 -824 2034
-1062 1190 -395 2460 -473 3699 -225 1147 228 2242 746 3147 1488 416 340 834
772 1142 1179 41 54 73 102 71 106 -4 11 -1609 1381 -1618 1381 -3 0 -35 -39
-70 -87 -768 -1037 -1930 -1736 -3241 -1947 -329 -54 -427 -61 -849 -61 -403
0 -510 7 -790 51 -1431 222 -2650 1052 -3357 2284 -684 1192 -846 2702 -437
4074 269 902 825 1734 1547 2314 1075 864 2502 1212 3942 962 1226 -213 2331
-859 3078 -1800 55 -69 103 -129 107 -133 6 -6 661 618 1524 1454 l29 28 -79
97 c-345 426 -783 847 -1225 1181 -1138 859 -2468 1346 -3916 1433 -196 11
-684 11 -878 -1z"/>
<path d="M30900 45883 c-188 -32 -399 -123 -562 -240 -103 -75 -259 -237 -331
-345 -97 -145 -163 -305 -203 -489 -26 -118 -26 -409 -1 -527 61 -276 181
-497 376 -693 196 -195 417 -315 693 -376 117 -25 409 -25 528 0 489 104 868
441 1025 910 47 142 65 257 66 418 0 199 -29 353 -98 519 -179 433 -566 743
-1028 824 -113 20 -349 20 -465 -1z"/>
<path d="M10698 42529 c-634 -36 -1241 -245 -1750 -602 -232 -163 -477 -383
-664 -598 l-84 -97 0 -817 0 -818 62 89 c366 530 885 845 1538 934 226 31 605
29 835 -5 1104 -162 1808 -966 2020 -2305 52 -329 48 -136 52 -3122 l3 -2768
1060 0 1060 0 0 3223 c0 2790 -2 3236 -15 3327 -8 58 -24 177 -35 265 -158
1221 -815 2207 -1859 2790 -532 297 -1153 471 -1800 505 -203 11 -222 11 -423
-1z"/>
<path d="M45170 42503 c-41 -2 -156 -10 -255 -18 -2386 -206 -4139 -1727
-4604 -3995 -176 -860 -152 -1822 65 -2649 500 -1901 1976 -3270 3939 -3655
386 -76 712 -106 1150 -106 405 0 677 21 1033 81 1489 248 2721 1063 3476
2298 l76 125 -27 17 c-16 9 -392 220 -838 469 -445 248 -824 460 -842 470
l-31 18 -58 -86 c-198 -299 -464 -580 -764 -806 -169 -127 -282 -198 -485
-302 -364 -188 -717 -296 -1140 -350 -191 -25 -596 -25 -780 -1 -604 81 -1109
289 -1575 651 -131 102 -357 320 -466 450 -542 646 -818 1482 -773 2349 36
708 253 1303 673 1847 104 135 371 402 506 506 412 318 843 514 1360 618 210
42 582 71 785 61 731 -37 1349 -247 1905 -645 283 -203 580 -507 771 -791 l60
-89 47 24 c165 86 1697 937 1700 945 7 22 -235 402 -377 591 -188 251 -520
600 -756 796 -486 402 -1001 686 -1610 889 -674 225 -1379 319 -2165 288z"/>
<path d="M59485 42490 c-1250 -71 -2346 -495 -3230 -1248 -225 -192 -512 -499
-707 -757 -443 -586 -764 -1312 -912 -2065 -80 -405 -101 -637 -101 -1120 0
-403 6 -504 50 -795 233 -1546 1121 -2883 2450 -3688 157 -95 493 -264 669
-336 439 -180 888 -292 1386 -347 359 -39 1006 -26 1565 32 1188 122 2312 471
3145 976 168 103 389 256 390 271 0 9 -727 1357 -740 1370 -4 5 -61 -27 -126
-71 -814 -544 -1817 -884 -2914 -988 -360 -34 -796 -33 -1065 1 -1177 151
-2212 841 -2689 1794 -126 251 -211 509 -260 786 -108 619 -129 1254 -60 1810
47 378 168 726 359 1035 445 718 1290 1299 2230 1534 284 71 525 101 810 100
423 -1 824 -85 1223 -255 358 -153 671 -361 941 -624 473 -461 720 -997 760
-1650 4 -71 6 -133 4 -137 -2 -5 -1303 -8 -2890 -8 l-2885 0 6 -352 c3 -194 9
-550 12 -791 l6 -437 3837 2 3836 3 16 130 c70 549 40 1267 -77 1870 -214
1096 -725 2057 -1454 2733 -768 712 -1705 1116 -2810 1212 -169 15 -592 20
-775 10z"/>
<path d="M38815 42464 c-11 -1 -69 -8 -130 -14 -147 -16 -381 -63 -524 -106
-483 -147 -891 -386 -1259 -739 -207 -198 -327 -349 -592 -739 l-155 -229 -3
822 -2 821 -1020 0 -1020 0 0 -4930 0 -4930 1060 0 1060 0 0 2554 c0 2624 2
2760 40 3063 116 909 530 1614 1207 2057 674 441 1625 564 2473 321 63 -18
117 -31 119 -29 4 4 90 1565 102 1853 l4 85 -30 8 c-178 48 -466 100 -687 123
-128 13 -573 20 -643 9z"/>
<path d="M5540 37350 l0 -4930 1060 0 1060 0 0 4930 0 4930 -1060 0 -1060 0 0
-4930z"/>
<path d="M30110 37350 l0 -4930 1060 0 1060 0 0 4930 0 4930 -1060 0 -1060 0
0 -4930z"/>
<path d="M16760 29255 c-8 -2 -49 -9 -90 -15 -314 -51 -540 -260 -629 -580
-43 -158 -52 -257 -58 -672 l-6 -398 -278 0 -279 0 0 -180 0 -180 280 0 280 0
2 -1117 3 -1118 215 0 215 0 3 1118 2 1117 315 0 315 0 0 180 0 180 -316 0
-315 0 4 443 c3 373 6 452 21 506 37 142 122 248 234 293 50 20 75 22 202 23
124 0 156 -3 219 -23 40 -13 74 -22 76 -20 2 2 15 77 29 168 14 91 29 177 32
191 5 25 1 28 -58 48 -90 29 -178 41 -298 40 -58 -1 -112 -3 -120 -4z"/>
<path d="M42150 27090 l0 -2100 215 0 215 0 0 230 c0 127 4 230 8 230 4 0 26
-28 49 -63 49 -74 174 -196 260 -255 199 -135 428 -202 693 -202 354 0 667
126 905 365 152 152 254 320 325 534 58 173 74 298 67 516 -3 111 -12 209 -22
255 -62 277 -175 490 -360 676 -189 191 -407 304 -700 360 -128 25 -409 25
-525 0 -231 -50 -413 -150 -596 -328 -49 -48 -93 -88 -97 -88 -4 0 -7 443 -7
985 l0 985 -215 0 -215 0 0 -2100z m1623 136 c388 -115 630 -440 654 -876 20
-369 -134 -697 -412 -878 -153 -100 -304 -142 -510 -142 -68 0 -157 6 -197 14
-220 42 -433 182 -558 366 -217 320 -225 806 -18 1137 104 166 288 310 472
368 119 38 167 44 331 41 126 -3 164 -8 238 -30z"/>
<path d="M46862 27093 l3 -2098 215 0 215 0 3 2098 2 2097 -220 0 -220 0 2
-2097z"/>
<path d="M17663 28570 c-63 -13 -114 -43 -162 -95 -75 -81 -102 -176 -81 -281
22 -108 74 -174 173 -220 53 -24 67 -26 150 -22 133 6 207 48 262 150 24 44
30 68 33 140 4 76 1 93 -21 141 -65 141 -208 217 -354 187z"/>
<path d="M22007 28569 c-89 -21 -169 -85 -215 -174 -36 -69 -37 -194 -3 -273
30 -67 104 -135 172 -157 71 -24 208 -17 265 13 60 31 131 114 149 175 55 185
-41 365 -221 412 -64 17 -91 17 -147 4z"/>
<path d="M41061 28570 c-85 -18 -168 -84 -213 -170 -20 -38 -23 -60 -23 -145
0 -92 2 -104 30 -153 57 -103 129 -144 265 -150 92 -4 97 -3 160 30 111 58
166 154 164 288 -2 83 -27 143 -89 209 -72 77 -187 113 -294 91z"/>
<path d="M45709 28567 c-155 -44 -248 -176 -237 -336 6 -84 41 -155 103 -209
58 -51 119 -72 210 -72 91 0 152 21 210 72 123 109 140 299 37 433 -70 93
-214 142 -323 112z"/>
<path d="M48311 28570 c-92 -19 -173 -89 -219 -188 -21 -47 -24 -64 -20 -140
3 -72 9 -96 33 -140 55 -102 129 -144 262 -150 83 -4 97 -2 150 22 99 46 151
112 173 220 22 107 -6 201 -85 285 -72 77 -187 113 -294 91z"/>
<path d="M51531 28570 c-95 -20 -196 -109 -226 -201 -25 -74 -21 -179 8 -243
33 -70 66 -107 129 -141 46 -25 66 -30 148 -33 92 -4 97 -3 160 30 112 58 166
154 164 290 -3 155 -126 287 -284 301 -30 3 -75 2 -99 -3z"/>
<path d="M23340 27960 l0 -370 -285 0 -285 0 0 -180 0 -180 285 0 285 0 0
-777 c0 -801 5 -946 40 -1086 53 -216 179 -347 390 -407 97 -28 326 -38 466
-21 100 12 231 43 292 68 l33 14 -6 172 c-4 95 -8 182 -10 193 -5 21 -6 21
-107 -15 -102 -35 -105 -36 -263 -36 -143 0 -165 2 -206 21 -86 40 -149 123
-180 236 -9 31 -13 272 -16 841 l-4 797 385 0 386 0 0 180 0 180 -385 0 -385
0 0 370 0 370 -215 0 -215 0 0 -370z"/>
<path d="M49640 27960 l0 -370 -280 0 -280 0 0 -180 0 -180 280 0 280 0 0
-697 c0 -958 13 -1136 91 -1300 62 -132 202 -239 360 -278 102 -25 352 -31
488 -11 103 15 250 55 276 73 7 6 8 70 2 198 -4 104 -10 191 -11 192 -2 2 -25
-6 -52 -17 -133 -58 -366 -79 -482 -45 -95 28 -167 101 -208 210 -18 47 -19
95 -22 863 l-3 812 381 0 380 0 0 180 0 180 -380 0 -380 0 0 370 0 370 -220 0
-220 0 0 -370z"/>
<path d="M13810 27645 c-112 -18 -265 -73 -364 -132 -103 -62 -238 -195 -291
-288 l-40 -69 -6 74 c-4 41 -7 139 -8 218 l-1 142 -206 0 -205 0 5 -122 c3
-68 8 -653 12 -1300 l5 -1178 215 0 214 0 0 680 c0 720 4 806 46 980 98 403
357 611 761 610 179 -1 331 -56 420 -154 61 -67 117 -171 146 -273 21 -77 22
-89 27 -958 l5 -880 215 0 215 0 3 755 c3 805 -4 1027 -38 1184 -76 350 -271
573 -592 676 -147 47 -369 61 -538 35z"/>
<path d="M19875 27646 c-140 -22 -304 -87 -422 -167 -74 -50 -194 -178 -238
-254 l-40 -69 -7 84 c-3 47 -6 145 -7 218 l-1 132 -206 0 -205 0 5 -117 c3
-65 8 -650 12 -1300 l5 -1183 214 0 214 0 4 743 c4 805 4 802 63 989 112 353
359 536 728 538 127 0 209 -16 302 -61 132 -63 226 -186 277 -366 21 -77 22
-89 27 -958 l5 -880 215 0 215 0 3 770 c3 974 -4 1098 -79 1315 -91 264 -294
456 -562 534 -149 43 -363 56 -522 32z"/>
<path d="M26036 27649 c-488 -56 -885 -365 -1055 -819 -71 -190 -86 -283 -86
-535 0 -245 9 -308 71 -493 131 -397 410 -678 797 -807 158 -52 288 -68 502
-62 322 9 545 72 757 213 131 87 340 296 324 323 -4 5 -75 63 -159 128 l-152
119 -90 -90 c-168 -168 -323 -250 -545 -287 -92 -15 -299 -12 -381 7 -94 20
-236 87 -316 148 -185 140 -315 371 -348 619 l-6 47 1052 0 1052 0 -6 188 c-8
280 -45 457 -138 651 -121 254 -276 414 -514 531 -224 110 -485 151 -759 119z
m334 -399 c351 -56 575 -299 614 -667 l5 -53 -819 0 -819 0 5 33 c65 370 304
618 657 682 88 16 270 18 357 5z"/>
<path d="M30765 27646 c-268 -45 -489 -161 -685 -360 -35 -36 -68 -66 -72 -66
-4 0 -8 83 -8 185 l0 185 -215 0 -215 0 0 -1930 0 -1930 215 0 215 0 0 860 c0
473 4 860 9 860 4 0 24 -24 44 -53 142 -215 400 -381 689 -444 106 -23 416
-25 523 -4 251 50 477 170 655 350 198 199 325 447 376 736 24 135 24 383 -1
520 -60 342 -243 650 -501 843 -145 108 -369 203 -559 237 -124 22 -369 28
-470 11z m405 -411 c98 -25 259 -107 342 -174 163 -131 260 -296 320 -541 8
-35 13 -117 13 -230 -1 -150 -4 -188 -24 -265 -95 -370 -354 -617 -718 -686
-96 -18 -350 -7 -441 20 -371 108 -619 427 -651 835 -42 526 241 944 709 1047
107 24 347 20 450 -6z"/>
<path d="M34035 27654 c-172 -19 -350 -68 -492 -135 -377 -179 -643 -535 -718
-964 -24 -136 -25 -385 -1 -520 85 -485 402 -862 859 -1024 176 -62 268 -75
512 -75 205 0 228 2 340 28 282 65 497 185 683 379 169 177 277 388 334 650
32 148 32 456 0 604 -58 267 -177 489 -361 674 -185 184 -407 300 -686 359
-98 20 -373 34 -470 24z m340 -409 c406 -71 696 -405 734 -845 38 -443 -148
-804 -506 -984 -121 -60 -198 -78 -371 -83 -97 -4 -175 -1 -215 6 -356 68
-616 311 -713 666 -25 91 -27 117 -28 280 -1 184 4 221 46 355 85 268 296 484
563 575 131 45 333 57 490 30z"/>
<path d="M36820 27645 c-256 -42 -455 -138 -598 -289 -154 -162 -213 -382
-167 -620 22 -119 65 -198 159 -291 70 -70 97 -89 196 -138 127 -62 234 -95
522 -162 307 -72 398 -108 483 -191 74 -71 90 -113 90 -229 0 -92 -2 -104 -29
-153 -87 -156 -280 -243 -541 -243 -136 0 -236 20 -330 64 -85 41 -203 133
-276 216 -29 34 -59 59 -65 57 -14 -6 -322 -244 -328 -255 -7 -11 115 -161
176 -217 211 -191 490 -274 878 -261 377 13 647 118 817 319 133 157 188 354
163 585 -27 255 -148 424 -388 542 -122 61 -240 96 -506 151 -418 87 -606 203
-606 376 0 109 87 227 214 289 173 84 426 86 588 4 69 -35 169 -121 217 -187
l44 -60 41 25 c41 26 307 203 315 209 12 10 -76 130 -149 205 -120 121 -261
195 -459 240 -116 26 -347 33 -461 14z"/>
<path d="M39150 27645 c-415 -69 -701 -294 -766 -605 -21 -100 -14 -278 15
-371 48 -151 165 -275 345 -363 123 -61 231 -94 518 -161 308 -72 394 -106
482 -190 74 -71 91 -114 91 -225 0 -84 -3 -102 -28 -151 -77 -158 -278 -250
-543 -250 -140 0 -238 20 -339 70 -87 43 -207 139 -275 220 -24 28 -46 51 -50
51 -3 0 -74 -52 -156 -116 -82 -64 -158 -122 -168 -130 -18 -13 -17 -17 38
-88 225 -294 536 -418 1006 -403 450 15 757 167 905 449 58 109 77 201 77 358
0 211 -45 344 -159 470 -139 155 -321 234 -737 320 -436 91 -622 213 -603 396
20 196 235 334 521 334 199 0 381 -91 495 -247 l44 -61 111 72 c209 136 246
161 246 168 0 3 -22 40 -50 81 -121 181 -309 301 -559 358 -116 26 -347 33
-461 14z"/>
<path d="M53670 27653 c-308 -33 -587 -162 -792 -368 -186 -186 -304 -415
-360 -700 -26 -130 -31 -408 -9 -539 48 -290 183 -567 369 -753 194 -194 454
-318 738 -354 132 -16 418 -6 545 20 203 41 378 116 520 223 74 55 248 229
268 267 9 16 -9 34 -150 144 l-161 125 -76 -79 c-219 -230 -441 -317 -779
-307 -132 4 -157 8 -235 35 -48 17 -120 50 -159 73 -139 82 -281 244 -351 398
-34 75 -78 237 -78 288 l0 34 1050 0 1050 0 0 98 c-1 478 -130 838 -391 1087
-181 172 -400 270 -674 304 -85 10 -247 12 -325 4z m323 -408 c216 -38 385
-148 490 -322 48 -79 94 -221 103 -315 l7 -78 -817 0 c-786 0 -816 1 -816 18
0 33 38 167 65 233 59 139 191 292 318 368 70 41 204 87 289 100 100 14 268
12 361 -4z"/>
<path d="M56350 27653 c-76 -8 -199 -37 -280 -65 -362 -128 -550 -367 -550
-697 1 -287 108 -455 375 -586 116 -58 248 -99 506 -159 316 -73 390 -102 485
-189 77 -70 99 -121 98 -232 0 -72 -4 -99 -22 -135 -51 -106 -146 -180 -286
-227 -75 -25 -93 -27 -256 -28 -158 0 -183 2 -254 24 -106 33 -210 102 -325
217 -52 52 -95 94 -97 94 -3 0 -303 -231 -333 -256 -8 -7 54 -88 122 -160 222
-238 502 -334 932 -321 196 6 299 23 448 75 244 84 429 258 501 472 25 73 30
105 33 225 6 162 -9 250 -57 353 -112 239 -330 367 -789 462 -365 76 -538 149
-616 259 -27 39 -30 50 -30 124 1 97 20 143 91 214 155 154 514 190 721 72 65
-38 173 -136 214 -196 l30 -43 180 121 180 120 -22 37 c-38 63 -104 145 -150
187 -192 177 -531 272 -849 238z"/>
<path d="M17510 26290 l0 -1300 215 0 215 0 0 1300 0 1300 -215 0 -215 0 0
-1300z"/>
<path d="M21860 26290 l0 -1300 215 0 215 0 0 1300 0 1300 -215 0 -215 0 0
-1300z"/>
<path d="M40920 26290 l0 -1300 213 2 212 3 3 1298 2 1297 -215 0 -215 0 0
-1300z"/>
<path d="M45570 26290 l0 -1300 215 0 215 0 0 1300 0 1300 -215 0 -215 0 0
-1300z"/>
<path d="M48170 26290 l0 -1300 215 0 215 0 0 1300 0 1300 -215 0 -215 0 0
-1300z"/>
<path d="M51382 26293 l3 -1298 215 0 215 0 3 1298 2 1297 -220 0 -220 0 2
-1297z"/>
</g>
</svg>
