<?xml version="1.0" standalone="no"?>
<!DOCTYPE svg PUBLIC "-//W3C//DTD SVG 20010904//EN"
 "http://www.w3.org/TR/2001/REC-SVG-20010904/DTD/svg10.dtd">
<svg version="1.0" xmlns="http://www.w3.org/2000/svg"
 width="344.000000pt" height="344.000000pt" viewBox="0 0 344.000000 344.000000"
 preserveAspectRatio="xMidYMid meet">

<g transform="translate(0.000000,344.000000) scale(0.100000,-0.100000)"
fill="#fff" stroke="none">
<path d="M430 2239 l0 -771 243 -304 242 -304 833 0 832 0 0 828 0 827 -248
248 -247 247 -828 0 -827 0 0 -771z m1680 446 l105 -105 -600 0 -600 0 -105
105 -105 105 600 0 600 0 105 -105z m-1252 -832 l-3 -572 -102 128 -103 129 0
548 0 549 105 -105 105 -105 -2 -572z m1502 -138 l0 -645 -640 0 -640 0 0 645
0 645 640 0 640 0 0 -645z"/>
<path d="M2790 1935 l-75 -75 125 -125 125 -125 -123 -123 -122 -122 75 -75
75 -75 200 200 200 200 -197 197 c-109 109 -200 198 -203 198 -3 0 -39 -34
-80 -75z"/>
<path d="M1400 645 l-75 -75 198 -198 197 -197 197 197 198 198 -75 75 -75 75
-122 -122 -123 -123 -123 123 -122 122 -75 -75z"/>
</g>
</svg>
