<?xml version="1.0" standalone="no"?>
<!DOCTYPE svg PUBLIC "-//W3C//DTD SVG 20010904//EN"
 "http://www.w3.org/TR/2001/REC-SVG-20010904/DTD/svg10.dtd">
<svg version="1.0" xmlns="http://www.w3.org/2000/svg"
 width="344.000000pt" height="344.000000pt" viewBox="0 0 344.000000 344.000000"
 preserveAspectRatio="xMidYMid meet">

<g transform="translate(0.000000,344.000000) scale(0.100000,-0.100000)"
fill="#fff" stroke="none">
<path d="M1472 3109 c-396 -46 -754 -305 -927 -672 -114 -242 -143 -509 -81
-747 28 -107 49 -160 148 -379 38 -84 83 -194 101 -245 l32 -91 3 -327 3 -328
110 0 109 0 0 279 c0 154 -5 315 -11 358 -15 112 -59 240 -151 442 -44 97 -96
223 -116 281 -37 105 -37 105 -36 270 0 150 3 173 27 253 101 330 357 579 688
669 72 20 107 23 254 23 182 0 251 -11 383 -61 147 -55 301 -178 392 -313 47
-70 115 -209 125 -256 4 -16 77 -175 163 -353 95 -198 152 -326 146 -332 -5
-5 -63 -25 -129 -44 l-120 -34 -5 -193 c-5 -186 -6 -196 -32 -245 -35 -66
-106 -138 -172 -172 -47 -24 -62 -27 -193 -30 l-143 -4 0 -269 0 -269 110 0
110 0 0 165 0 165 39 0 c137 0 315 114 413 265 52 80 76 167 85 309 l8 120 45
11 c142 37 221 132 207 253 -3 28 -60 158 -165 375 -88 183 -168 357 -178 387
-36 118 -137 286 -238 396 -231 255 -619 388 -1004 343z"/>
<path d="M1292 2495 c-41 -23 -78 -47 -83 -52 -6 -6 5 -36 32 -82 l41 -72 -25
-27 c-39 -43 -76 -104 -96 -163 l-19 -54 -86 -3 -86 -3 0 -104 0 -104 86 -3
87 -3 12 -42 c15 -51 56 -122 97 -168 l30 -35 -41 -71 c-23 -39 -39 -74 -36
-79 8 -13 168 -101 177 -98 5 2 26 33 47 68 l38 65 44 -5 c69 -7 150 -6 201 3
l46 8 39 -70 c21 -39 42 -71 47 -71 5 0 49 23 98 51 85 49 88 52 75 73 -8 11
-28 46 -45 77 l-32 55 31 30 c37 35 83 114 100 172 l12 42 89 0 88 0 0 105 0
105 -88 0 -89 0 -12 43 c-17 57 -63 136 -100 171 l-31 30 32 55 c17 31 37 66
45 77 13 21 10 24 -75 73 -49 28 -93 51 -98 51 -5 0 -26 -32 -47 -71 l-39 -70
-46 8 c-51 9 -132 10 -201 3 l-44 -5 -40 68 c-21 37 -44 67 -50 66 -7 0 -45
-20 -85 -44z m428 -316 c55 -25 105 -71 133 -124 31 -57 31 -183 0 -241 -52
-98 -149 -150 -263 -142 -87 7 -151 42 -197 111 -96 143 -41 333 117 401 51
22 156 20 210 -5z"/>
</g>
</svg>
