<?xml version="1.0" standalone="no"?>
<!DOCTYPE svg PUBLIC "-//W3C//DTD SVG 20010904//EN"
 "http://www.w3.org/TR/2001/REC-SVG-20010904/DTD/svg10.dtd">
<svg version="1.0" xmlns="http://www.w3.org/2000/svg"
 width="344.000000pt" height="344.000000pt" viewBox="0 0 344.000000 344.000000"
 preserveAspectRatio="xMidYMid meet">

<g transform="translate(0.000000,344.000000) scale(0.100000,-0.100000)"
fill="#fff" stroke="none">
<path d="M2150 2841 l-215 -209 -123 121 -122 122 -77 -77 -77 -78 39 -40 39
-40 -291 -293 c-344 -345 -348 -351 -348 -497 0 -130 18 -163 167 -315 l117
-121 -399 -399 -400 -400 77 -77 78 -78 400 400 400 399 120 -117 c152 -150
185 -167 315 -167 146 0 152 4 497 348 l293 291 40 -39 40 -39 78 77 77 77
-122 122 -121 123 209 215 209 215 -75 75 -75 75 -213 -213 -212 -212 -193
192 -192 193 212 212 213 213 -75 75 -75 74 -215 -208z m-20 -716 l355 -355
-290 -290 -291 -290 -50 0 c-41 0 -59 6 -90 29 -46 34 -534 525 -558 561 -9
14 -16 45 -16 74 l0 50 287 288 c158 158 290 288 293 288 3 0 165 -160 360
-355z"/>
</g>
</svg>
