<?xml version="1.0" standalone="no"?>
<!DOCTYPE svg PUBLIC "-//W3C//DTD SVG 20010904//EN"
 "http://www.w3.org/TR/2001/REC-SVG-20010904/DTD/svg10.dtd">
<svg version="1.0" xmlns="http://www.w3.org/2000/svg"
 width="344.000000pt" height="344.000000pt" viewBox="0 0 344.000000 344.000000"
 preserveAspectRatio="xMidYMid meet">

<g transform="translate(0.000000,344.000000) scale(0.100000,-0.100000)"
fill="#fff" stroke="none">
<path d="M2180 2865 l-285 -285 -201 0 -200 0 -13 49 c-17 68 -71 155 -139
223 -232 237 -634 197 -818 -79 -112 -168 -122 -374 -29 -552 61 -116 202
-233 316 -262 l49 -13 0 -223 0 -223 -215 0 -215 0 0 -535 0 -535 540 0 540 0
0 535 0 535 -215 0 -215 0 0 224 0 224 32 7 c64 14 172 79 233 140 61 61 127
171 140 233 l7 32 196 0 197 0 237 -237 238 -238 0 -196 0 -196 -42 -12 c-168
-50 -311 -196 -362 -370 -18 -62 -21 -203 -5 -271 31 -134 150 -285 276 -349
245 -123 540 -48 689 176 112 168 122 374 29 552 -61 116 -202 233 -316 262
l-49 13 0 195 0 196 292 292 293 293 -340 340 c-187 187 -344 340 -350 340 -6
0 -138 -128 -295 -285z m488 -592 l-193 -193 -192 192 -193 193 192 192 193
193 192 -192 193 -193 -192 -192z m-1563 489 c68 -33 127 -92 158 -161 33 -70
31 -188 -4 -262 -33 -71 -87 -125 -158 -158 -46 -21 -70 -26 -136 -26 -94 0
-148 21 -215 81 -145 131 -131 387 27 495 63 44 109 58 193 58 63 1 85 -4 135
-27z m185 -1797 l0 -325 -320 0 -320 0 0 325 0 325 320 0 320 0 0 -325z m1311
298 c204 -90 256 -365 99 -523 -95 -95 -248 -119 -368 -60 -69 35 -125 92
-156 159 -32 70 -29 198 6 267 15 28 38 64 52 81 27 32 112 82 160 94 51 13
158 4 207 -18z"/>
</g>
</svg>
