<?xml version="1.0" encoding="UTF-8" standalone="no"?>
<svg
   xmlns:dc="http://purl.org/dc/elements/1.1/"
   xmlns:cc="http://creativecommons.org/ns#"
   xmlns:rdf="http://www.w3.org/1999/02/22-rdf-syntax-ns#"
   xmlns:svg="http://www.w3.org/2000/svg"
   xmlns="http://www.w3.org/2000/svg"
   xmlns:sodipodi="http://sodipodi.sourceforge.net/DTD/sodipodi-0.dtd"
   xmlns:inkscape="http://www.inkscape.org/namespaces/inkscape"
   viewBox="0 0 409.6 306.75"
   version="1.1"
   id="svg10"
   sodipodi:docname="bimcad.svg"
   inkscape:version="1.0.2 (e86c870879, 2021-01-15, custom)">
  <metadata
     id="metadata16">
    <rdf:RDF>
      <cc:Work
         rdf:about="">
        <dc:format>image/svg+xml</dc:format>
        <dc:type
           rdf:resource="http://purl.org/dc/dcmitype/StillImage" />
      </cc:Work>
    </rdf:RDF>
  </metadata>
  <defs
     id="defs14" />
  <sodipodi:namedview
     pagecolor="#ffffff"
     bordercolor="#666666"
     borderopacity="1"
     objecttolerance="10"
     gridtolerance="10"
     guidetolerance="10"
     inkscape:pageopacity="0"
     inkscape:pageshadow="2"
     inkscape:window-width="1920"
     inkscape:window-height="991"
     id="namedview12"
     showgrid="false"
     inkscape:zoom="1.8902284"
     inkscape:cx="177.13635"
     inkscape:cy="141.13385"
     inkscape:window-x="-9"
     inkscape:window-y="-9"
     inkscape:window-maximized="1"
     inkscape:current-layer="svg10" />
  <path
     class="lineal-stroke"
     d="M383.05 259.54H26.55V36.19A36.23 36.23 0 0162.74 0h284.12a36.22 36.22 0 0136.19 36.19zM48.63 237.46H361V36.19a14.12 14.12 0 00-14.1-14.11H62.74a14.13 14.13 0 00-14.11 14.11z"
     id="path2"
     style="fill:#414b64;fill-opacity:1" />
  <path
     class="lineal-stroke"
     d="M338.88 259.54H70.72V69.26a25.12 25.12 0 0125.09-25.1h218a25.13 25.13 0 0125.1 25.1H316.8a3 3 0 00-3-3h-218a3 3 0 00-3 3v168.2h224v-123.8h22.08z"
     id="path4"
     style="fill:#414b64;fill-opacity:1" />
  <path
     class="lineal-fill"
     d="M386.48 295.71H23.12A12.08 12.08 0 0111 283.63v-23a12.08 12.08 0 0112.12-12.13h363.36a12.08 12.08 0 0112.08 12.09v23a12.08 12.08 0 01-12.08 12.08z"
     id="path6"
     style="fill:#5eb9f0;fill-opacity:1" />
  <path
     class="lineal-stroke"
     d="M386.48 306.75H23.12A23.14 23.14 0 010 283.63v-23a23.14 23.14 0 0123.12-23.12h363.36a23.14 23.14 0 0123.12 23.12v23a23.14 23.14 0 01-23.12 23.12zM23.12 259.54a1 1 0 00-1 1v23a1 1 0 001 1h363.36a1 1 0 001-1v-23a1 1 0 00-1-1z"
     id="path8"
     style="fill:#414b64;fill-opacity:1" />
</svg>
