<?xml version="1.0" encoding="UTF-8" standalone="no"?>
<svg
   xmlns:dc="http://purl.org/dc/elements/1.1/"
   xmlns:cc="http://creativecommons.org/ns#"
   xmlns:rdf="http://www.w3.org/1999/02/22-rdf-syntax-ns#"
   xmlns:svg="http://www.w3.org/2000/svg"
   xmlns="http://www.w3.org/2000/svg"
   xmlns:sodipodi="http://sodipodi.sourceforge.net/DTD/sodipodi-0.dtd"
   xmlns:inkscape="http://www.inkscape.org/namespaces/inkscape"
   viewBox="0 0 256 256"
   version="1.1"
   id="svg12"
   sodipodi:docname="cloud.svg"
   inkscape:version="1.0.2 (e86c870879, 2021-01-15, custom)">
  <metadata
     id="metadata18">
    <rdf:RDF>
      <cc:Work
         rdf:about="">
        <dc:format>image/svg+xml</dc:format>
        <dc:type
           rdf:resource="http://purl.org/dc/dcmitype/StillImage" />
      </cc:Work>
    </rdf:RDF>
  </metadata>
  <defs
     id="defs16" />
  <sodipodi:namedview
     pagecolor="#ffffff"
     bordercolor="#666666"
     borderopacity="1"
     objecttolerance="10"
     gridtolerance="10"
     guidetolerance="10"
     inkscape:pageopacity="0"
     inkscape:pageshadow="2"
     inkscape:window-width="1920"
     inkscape:window-height="991"
     id="namedview14"
     showgrid="false"
     inkscape:zoom="2.2649514"
     inkscape:cx="110.28378"
     inkscape:cy="134.61282"
     inkscape:window-x="-9"
     inkscape:window-y="-9"
     inkscape:window-maximized="1"
     inkscape:current-layer="g8" />
  <g
     data-name="Layer 2"
     id="g10">
    <g
       data-name="Layer 1"
       id="g8">
      <path
         class="fill-secondary"
         d="m 229,204.06 a 25.63,25.63 0 0 0 -13.31,3.8 L 173.35,178.54 V 128 A 10.675,10.675 0 0 0 152,128 v 56.11 a 10.63,10.63 0 0 0 4.59,8.77 l 46.9,32.48 A 26.59,26.59 0 0 0 203,230 26,26 0 1 0 229,204 Z m 0,30.61 a 4.64,4.64 0 1 1 4.64,-4.64 4.64,4.64 0 0 1 -4.64,4.64 z M 138.67,206.42 V 128 a 10.67,10.67 0 1 0 -21.34,0 v 78.42 a 26,26 0 1 0 21.34,0 z M 128,234.67 a 4.64,4.64 0 1 1 4.64,-4.64 4.64,4.64 0 0 1 -4.64,4.64 z"
         id="path2"
         style="fill:#5eb9f0;fill-opacity:1" />
      <path
         class="fill-primary"
         d="m 49.84,172.21 14.1,-0.18 2.73,-1.89 V 128 a 26.71,26.71 0 0 1 26.67,-26.67 26.41,26.41 0 0 1 17.33,6.57 26.14,26.14 0 0 1 34.66,0 26.53,26.53 0 0 1 44,20.1 v 42.14 l 0.56,0.39 16.46,-0.19 a 8.5,8.5 0 0 0 2.08,-0.31 A 65.34,65.34 0 0 0 199.2,42.38 81,81 0 0 0 49.07,62.91 55.07,55.07 0 0 0 0,117.57 c 0,28.03 21,51.5 49.84,54.64 z"
         id="path4"
         style="fill:#414b64;fill-opacity:1" />
      <path
         class="fill-secondary"
         d="m 104,128 a 10.67,10.67 0 1 0 -21.33,0 v 50.53 L 40.34,207.84 A 25.91,25.91 0 1 0 53,230 25.68,25.68 0 0 0 52.52,225.33 L 99.41,192.85 A 10.63,10.63 0 0 0 104,184.08 Z M 27,234.67 A 4.64,4.64 0 1 1 31.65,230 4.64,4.64 0 0 1 27,234.67 Z"
         id="path6"
         style="fill:#5eb9f0;fill-opacity:1" />
    </g>
  </g>
</svg>
