<?xml version="1.0" encoding="UTF-8" standalone="no"?>
<svg
   xmlns:dc="http://purl.org/dc/elements/1.1/"
   xmlns:cc="http://creativecommons.org/ns#"
   xmlns:rdf="http://www.w3.org/1999/02/22-rdf-syntax-ns#"
   xmlns:svg="http://www.w3.org/2000/svg"
   xmlns="http://www.w3.org/2000/svg"
   xmlns:sodipodi="http://sodipodi.sourceforge.net/DTD/sodipodi-0.dtd"
   xmlns:inkscape="http://www.inkscape.org/namespaces/inkscape"
   viewBox="0 0 512 442.8"
   version="1.1"
   id="svg14"
   sodipodi:docname="browser.svg"
   inkscape:version="1.0.2 (e86c870879, 2021-01-15, custom)">
  <metadata
     id="metadata20">
    <rdf:RDF>
      <cc:Work
         rdf:about="">
        <dc:format>image/svg+xml</dc:format>
        <dc:type
           rdf:resource="http://purl.org/dc/dcmitype/StillImage" />
      </cc:Work>
    </rdf:RDF>
  </metadata>
  <defs
     id="defs18" />
  <sodipodi:namedview
     pagecolor="#ffffff"
     bordercolor="#666666"
     borderopacity="1"
     objecttolerance="10"
     gridtolerance="10"
     guidetolerance="10"
     inkscape:pageopacity="0"
     inkscape:pageshadow="2"
     inkscape:window-width="1920"
     inkscape:window-height="991"
     id="namedview16"
     showgrid="false"
     inkscape:zoom="1.8518519"
     inkscape:cx="256"
     inkscape:cy="221.39999"
     inkscape:window-x="-9"
     inkscape:window-y="-9"
     inkscape:window-maximized="1"
     inkscape:current-layer="svg14" />
  <path
     class="lineal-stroke"
     d="M464.2 442.8H47.7C21.4 442.8 0 421.4 0 395.1V47.7C0 21.4 21.4 0 47.7 0h416.5C490.6 0 512 21.4 512 47.7c0 7.6-6.2 13.8-13.8 13.9-7.6 0-13.8-6.2-13.9-13.8 0-11.1-9-20-20.1-20.1H47.7c-11.1 0-20 9-20.1 20.1v347.3c0 11.1 9 20.1 20.1 20.1h416.5c11.1 0 20.1-9 20.1-20.1V209.4c0-7.6 6.2-13.8 13.8-13.9 7.6 0 13.8 6.2 13.9 13.8V395c0 26.4-21.4 47.8-47.8 47.8z"
     id="path2" />
  <path
     class="lineal-fill"
     d="M13.8 47.7v69.9h484.3V47.7c0-18.7-15.2-33.9-33.9-33.9H47.7C29 13.8 13.8 29 13.8 47.7z"
     id="path4"
     style="fill:#eea1a6;fill-opacity:1" />
  <path
     class="lineal-stroke"
     d="M498.2 131.5H13.8c-7.6 0-13.8-6.2-13.8-13.8v-70C0 21.4 21.4 0 47.7 0h416.5C490.6 0 512 21.4 512 47.7v69.9c0 7.7-6.2 13.9-13.8 13.9zM27.7 103.8h456.6v-56c0-11.1-9-20.1-20.1-20.1H47.8c-11.1 0-20 9-20.1 20v56.1z"
     id="path6" />
  <path
     class="lineal-stroke"
     d="M294.7 79.6h-26.3c-7.6 0-13.8-6.2-13.8-13.8S260.8 52 268.4 52h26.3c7.6 0 13.8 6.2 13.8 13.8.1 7.6-6.1 13.8-13.8 13.8zm73.4 0h-26.3c-7.6 0-13.8-6.2-13.8-13.8 0-7.6 6.2-13.8 13.8-13.8h26.3c7.6 0 13.8 6.2 13.8 13.8 0 7.6-6.2 13.8-13.8 13.8zm73.3 0h-26.3c-7.6 0-13.8-6.2-13.8-13.8 0-7.6 6.2-13.8 13.8-13.8h26.3c7.6 0 13.8 6.2 13.8 13.8.1 7.6-6.1 13.8-13.8 13.8z"
     id="path8" />
  <path
     class="lineal-fill"
     d="M112.8 268.5h286.4v63.6H112.8z"
     id="path10"
     style="fill:#eea1a6;fill-opacity:1" />
  <path
     class="lineal-stroke"
     d="M399.2 345.9H112.8c-7.6 0-13.8-6.2-13.8-13.8v-63.7c0-7.6 6.2-13.8 13.8-13.8h286.4c7.6 0 13.8 6.2 13.8 13.8v63.7c.1 7.6-6.1 13.8-13.8 13.8zm-272.6-27.6h258.8v-36H126.6v36zm230.9-95.5h-203c-7.6.2-14-5.8-14.2-13.5s5.8-14 13.5-14.2h203.8c7.6-.2 14 5.8 14.2 13.5s-5.8 14-13.5 14.2h-.8z"
     id="path12" />
</svg>
