<?xml version="1.0" encoding="UTF-8" standalone="no"?>
<svg
   xmlns:dc="http://purl.org/dc/elements/1.1/"
   xmlns:cc="http://creativecommons.org/ns#"
   xmlns:rdf="http://www.w3.org/1999/02/22-rdf-syntax-ns#"
   xmlns:svg="http://www.w3.org/2000/svg"
   xmlns="http://www.w3.org/2000/svg"
   xmlns:sodipodi="http://sodipodi.sourceforge.net/DTD/sodipodi-0.dtd"
   xmlns:inkscape="http://www.inkscape.org/namespaces/inkscape"
   viewBox="0 0 512 454.6"
   version="1.1"
   id="svg8"
   sodipodi:docname="chat-2.svg"
   inkscape:version="1.0.2 (e86c870879, 2021-01-15, custom)">
  <metadata
     id="metadata14">
    <rdf:RDF>
      <cc:Work
         rdf:about="">
        <dc:format>image/svg+xml</dc:format>
        <dc:type
           rdf:resource="http://purl.org/dc/dcmitype/StillImage" />
      </cc:Work>
    </rdf:RDF>
  </metadata>
  <defs
     id="defs12" />
  <sodipodi:namedview
     pagecolor="#ffffff"
     bordercolor="#666666"
     borderopacity="1"
     objecttolerance="10"
     gridtolerance="10"
     guidetolerance="10"
     inkscape:pageopacity="0"
     inkscape:pageshadow="2"
     inkscape:window-width="1920"
     inkscape:window-height="991"
     id="namedview10"
     showgrid="false"
     inkscape:zoom="0.90189176"
     inkscape:cx="183.0239"
     inkscape:cy="286.70204"
     inkscape:window-x="-9"
     inkscape:window-y="-9"
     inkscape:window-maximized="1"
     inkscape:current-layer="svg8" />
  <path
     class="lineal-fill"
     d="M131.5 126.8h249V15.2H15.2v256.3h116.3z"
     id="path2"
     style="fill:#8fdcc6;fill-opacity:1" />
  <path
     class="lineal-stroke"
     d="M496.8 194.4c-8.4 0-15.2 6.8-15.2 15.2v158.3h-29.7c-8.4 0-15.2 6.8-15.2 15.2 0 .5 0 1.1.1 1.6l2.8 27.2-75.7-42.1c-2.3-1.3-4.8-1.9-7.4-1.9H146.7V142h233.8c8.4 0 15.2-6.8 15.2-15.2V15.2c0-8.4-6.8-15.2-15.2-15.2H15.2C6.8 0 0 6.8 0 15.2v256.3c0 8.4 6.8 15.2 15.2 15.2h101v96.4c0 8.4 6.8 15.2 15.2 15.2h221l97.8 54.3c7.3 4.1 16.6 1.4 20.7-5.9 1.5-2.7 2.2-5.9 1.8-9l-4.1-39.5h28.1c8.4 0 15.2-6.8 15.2-15.2V209.6c.1-8.4-6.7-15.2-15.1-15.2zM30.4 256.3V30.4h334.8v81.2H131.5c-8.4 0-15.2 6.8-15.2 15.2v129.5H30.4z"
     id="path4" />
  <path
     class="lineal-stroke"
     d="M413.8 223.6H214.4c-8.4 0-15.2-6.8-15.2-15.2s6.8-15.2 15.2-15.2h199.4c8.4 0 15.2 6.8 15.2 15.2s-6.8 15.2-15.2 15.2zm0 85.9H214.4c-8.4 0-15.2-6.8-15.2-15.2S206 279 214.4 279h199.4c8.4 0 15.2 6.8 15.2 15.2s-6.8 15.3-15.2 15.3z"
     id="path6" />
</svg>
